{
  "accessors": [
    {
      "bufferView": 2,
      "componentType": 5126,
      "count": 64,
      "max": [
        100.0,
        3.6062235832214355,
        100.0
      ],
      "min": [
        -118.0057373046875,
        -3.4025490283966064,
        -100.0
      ],
      "type": "VEC3"
    },
    {
      "bufferView": 2,
      "byteOffset": 768,
      "componentType": 5126,
      "count": 64,
      "max": [
        0.9717288017272949,
        0.9996619820594788,
        0.975982129573822
      ],
      "min": [
        -0.997309684753418,
        -0.9996618628501892,
        -0.9853337407112122
      ],
      "type": "VEC3"
    },
    {
      "bufferView": 1,
      "componentType": 5126,
      "count": 64,
      "max": [
        0.9809713363647461,
        1.00181245803833
      ],
      "min": [
        0.009598825126886368,
        0.046838998794555664
      ],
      "type": "VEC2"
    },
    {
      "bufferView": 0,
      "componentType": 5125,
      "count": 96,
      "type": "SCALAR"
    },
    {
      "bufferView": 2,
      "byteOffset": 1536,
      "componentType": 5126,
      "count": 64,
      "max": [
        100.0,
        3.6062235832214355,
        100.0
      ],
      "min": [
        -106.32684326171875,
        -3.4025490283966064,
        -100.0
      ],
      "type": "VEC3"
    },
    {
      "bufferView": 2,
      "byteOffset": 2304,
      "componentType": 5126,
      "count": 64,
      "max": [
        0.99973064661026,
        0.9995661973953247,
        0.9972139000892639
      ],
      "min": [
        -0.9977142810821533,
        -0.9995661973953247,
        -0.9982922077178955
      ],
      "type": "VEC3"
    },
    {
      "bufferView": 1,
      "byteOffset": 512,
      "componentType": 5126,
      "count": 64,
      "max": [
        0.968569815158844,
        1.00181245803833
      ],
      "min": [
        0.009598825126886368,
        0.5160201191902161
      ],
      "type": "VEC2"
    },
    {
      "bufferView": 0,
      "byteOffset": 384,
      "componentType": 5125,
      "count": 96,
      "type": "SCALAR"
    }
  ],
  "asset": {
    "extras": {
      "author": "wooolvie (https://sketchfab.com/wooolvie)",
      "license": "CC-BY-4.0 (http://creativecommons.org/licenses/by/4.0/)",
      "source": "https://sketchfab.com/3d-models/psx-style-newspaper-9e159300498046f095d9710935869b68",
      "title": "PSX Style Newspaper"
    },
    "generator": "Sketchfab-16.56.0",
    "version": "2.0"
  },
  "bufferViews": [
    {
      "buffer": 0,
      "byteLength": 768,
      "name": "floatBufferViews",
      "target": 34963
    },
    {
      "buffer": 0,
      "byteLength": 1024,
      "byteOffset": 768,
      "byteStride": 8,
      "name": "floatBufferViews",
      "target": 34962
    },
    {
      "buffer": 0,
      "byteLength": 3072,
      "byteOffset": 1792,
      "byteStride": 12,
      "name": "floatBufferViews",
      "target": 34962
    }
  ],
  "buffers": [
    {
      "byteLength": 4864,
      "uri": "scene.bin"
    }
  ],
  "images": [
    {
      "uri": "textures/Blood_baseColor.png"
    },
    {
      "uri": "textures/Material.001_baseColor.jpeg"
    }
  ],
  "materials": [
    {
      "doubleSided": true,
      "name": "Blood",
      "pbrMetallicRoughness": {
        "baseColorTexture": {
          "index": 0
        },
        "metallicFactor": 0.0,
        "roughnessFactor": 0.8040408205773457
      }
    },
    {
      "doubleSided": true,
      "name": "Material.001",
      "pbrMetallicRoughness": {
        "baseColorTexture": {
          "index": 1
        },
        "metallicFactor": 0.0,
        "roughnessFactor": 0.8211145618000169
      }
    }
  ],
  "meshes": [
    {
      "name": "Plane_Blood_0",
      "primitives": [
        {
          "attributes": {
            "NORMAL": 1,
            "POSITION": 0,
            "TEXCOORD_0": 2
          },
          "indices": 3,
          "material": 0,
          "mode": 4
        }
      ]
    },
    {
      "name": "Plane.001_Material.001_0",
      "primitives": [
        {
          "attributes": {
            "NORMAL": 5,
            "POSITION": 4,
            "TEXCOORD_0": 6
          },
          "indices": 7,
          "material": 1,
          "mode": 4
        }
      ]
    }
  ],
  "nodes": [
    {
      "children": [
        1
      ],
      "matrix": [
        1.0,
        0.0,
        0.0,
        0.0,
        0.0,
        2.220446049250313e-16,
        -1.0,
        0.0,
        0.0,
        1.0,
        2.220446049250313e-16,
        0.0,
        0.0,
        0.0,
        0.0,
        1.0
      ],
      "name": "Sketchfab_model"
    },
    {
      "children": [
        2
      ],
      "matrix": [
        0.009999999776482582,
        0.0,
        0.0,
        0.0,
        0.0,
        0.0,
        0.009999999776482582,
        0.0,
        0.0,
        -0.009999999776482582,
        0.0,
        0.0,
        0.0,
        0.0,
        0.0,
        1.0
      ],
      "name": "Newspaper.fbx"
    },
    {
      "children": [
        3,
        5
      ],
      "name": "RootNode"
    },
    {
      "children": [
        4
      ],
      "matrix": [
        3.150375112312083e-08,
        -0.4172798378291025,
        -0.3045823622513481,
        0.0,
        0.9999999999999973,
        7.549789926564188e-08,
        -5.551115123125783e-17,
        0.0,
        3.0350585970852404e-08,
        -0.4020057011483996,
        0.5507504523297042,
        0.0,
        18.42144203186035,
        53.337459564208984,
        -64.08358764648438,
        1.0
      ],
      "name": "Plane"
    },
    {
      "mesh": 0,
      "name": "Plane_Blood_0"
    },
    {
      "children": [
        6
      ],
      "matrix": [
        1.0058899730566101e-07,
        -0.516616761684408,
        0.0,
        0.0,
        0.9999999999999811,
        1.9470718870540082e-07,
        0.0,
        0.0,
        0.0,
        0.0,
        0.681861162185669,
        0.0,
        0.0,
        0.0,
        -155.5785369873047,
        1.0
      ],
      "name": "Plane.001"
    },
    {
      "mesh": 1,
      "name": "Plane.001_Material.001_0"
    }
  ],
  "samplers": [
    {
      "magFilter": 9729,
      "minFilter": 9987,
      "wrapS": 10497,
      "wrapT": 10497
    }
  ],
  "scene": 0,
  "scenes": [
    {
      "name": "Sketchfab_Scene",
      "nodes": [
        0
      ]
    }
  ],
  "textures": [
    {
      "sampler": 0,
      "source": 0
    },
    {
      "sampler": 0,
      "source": 1
    }
  ]
}
