{
  "accessors": [
    {
      "bufferView": 2,
      "componentType": 5126,
      "count": 11946,
      "max": [
        1.0,
        0.871940016746521,
        0.9291620254516602
      ],
      "min": [
        -1.0,
        -0.871940016746521,
        -0.5548139810562134
      ],
      "type": "VEC3"
    },
    {
      "bufferView": 2,
      "byteOffset": 143352,
      "componentType": 5126,
      "count": 11946,
      "max": [
        1.0,
        1.0,
        1.0
      ],
      "min": [
        -1.0,
        -1.0,
        -1.0
      ],
      "type": "VEC3"
    },
    {
      "bufferView": 3,
      "componentType": 5126,
      "count": 11946,
      "max": [
        1.0,
        1.0,
        1.0,
        1.0
      ],
      "min": [
        -1.0,
        -1.0,
        -1.0,
        -1.0
      ],
      "type": "VEC4"
    },
    {
      "bufferView": 1,
      "componentType": 5126,
      "count": 11946,
      "max": [
        0.9900000095367432,
        0.9724000096321106
      ],
      "min": [
        0.009999999776482582,
        0.009999999776482582
      ],
      "type": "VEC2"
    },
    {
      "bufferView": 0,
      "componentType": 5125,
      "count": 57516,
      "type": "SCALAR"
    },
    {
      "bufferView": 2,
      "byteOffset": 286704,
      "componentType": 5126,
      "count": 256,
      "max": [
        0.9160580039024353,
        0.7565799951553345,
        0.8771659731864929
      ],
      "min": [
        -0.9160580039024353,
        -0.6869800090789795,
        0.1727380007505417
      ],
      "type": "VEC3"
    },
    {
      "bufferView": 2,
      "byteOffset": 289776,
      "componentType": 5126,
      "count": 256,
      "max": [
        0.9904316663742065,
        0.7311000227928162,
        1.0
      ],
      "min": [
        -0.9904316663742065,
        -0.7311000227928162,
        -0.13800440728664398
      ],
      "type": "VEC3"
    },
    {
      "bufferView": 3,
      "byteOffset": 191136,
      "componentType": 5126,
      "count": 256,
      "max": [
        0.6393514275550842,
        1.0,
        0.6004098653793335,
        1.0
      ],
      "min": [
        -0.6393514275550842,
        -1.0,
        -0.6004543900489807,
        -1.0
      ],
      "type": "VEC4"
    },
    {
      "bufferView": 1,
      "byteOffset": 95568,
      "componentType": 5126,
      "count": 256,
      "max": [
        0.9404000043869019,
        0.972100019454956
      ],
      "min": [
        0.22349999845027924,
        0.3783000111579895
      ],
      "type": "VEC2"
    },
    {
      "bufferView": 0,
      "byteOffset": 230064,
      "componentType": 5125,
      "count": 1188,
      "type": "SCALAR"
    },
    {
      "bufferView": 2,
      "byteOffset": 292848,
      "componentType": 5126,
      "count": 1726,
      "max": [
        0.9514110088348389,
        0.610505998134613,
        0.012530299834907055
      ],
      "min": [
        -0.9473339915275574,
        -0.7935879826545715,
        -0.9291620254516602
      ],
      "type": "VEC3"
    },
    {
      "bufferView": 2,
      "byteOffset": 313560,
      "componentType": 5126,
      "count": 1726,
      "max": [
        0.9999276399612427,
        1.0,
        1.0
      ],
      "min": [
        -0.9999276399612427,
        -1.0,
        -1.0
      ],
      "type": "VEC3"
    },
    {
      "bufferView": 3,
      "byteOffset": 195232,
      "componentType": 5126,
      "count": 1726,
      "max": [
        1.0,
        0.9944151639938354,
        1.0,
        1.0
      ],
      "min": [
        -0.9999781847000122,
        -0.9971834421157837,
        -0.9865654706954956,
        -1.0
      ],
      "type": "VEC4"
    },
    {
      "bufferView": 1,
      "byteOffset": 97616,
      "componentType": 5126,
      "count": 1726,
      "max": [
        0.5813000202178955,
        0.9693999886512756
      ],
      "min": [
        0.04740000143647194,
        0.34630000591278076
      ],
      "type": "VEC2"
    },
    {
      "bufferView": 0,
      "byteOffset": 234816,
      "componentType": 5125,
      "count": 9000,
      "type": "SCALAR"
    }
  ],
  "asset": {
    "extras": {
      "author": "Tyler P Halterman (https://sketchfab.com/tylerhalterman)",
      "license": "CC-BY-4.0 (http://creativecommons.org/licenses/by/4.0/)",
      "source": "https://sketchfab.com/3d-models/steampunk-mask-6f8260fe6b5f4c18b767ad577c18c46a",
      "title": "Steampunk Mask"
    },
    "generator": "Sketchfab-12.66.0",
    "version": "2.0"
  },
  "bufferViews": [
    {
      "buffer": 0,
      "byteLength": 270816,
      "name": "floatBufferViews",
      "target": 34963
    },
    {
      "buffer": 0,
      "byteLength": 111424,
      "byteOffset": 270816,
      "byteStride": 8,
      "name": "floatBufferViews",
      "target": 34962
    },
    {
      "buffer": 0,
      "byteLength": 334272,
      "byteOffset": 382240,
      "byteStride": 12,
      "name": "floatBufferViews",
      "target": 34962
    },
    {
      "buffer": 0,
      "byteLength": 222848,
      "byteOffset": 716512,
      "byteStride": 16,
      "name": "floatBufferViews",
      "target": 34962
    }
  ],
  "buffers": [
    {
      "byteLength": 939360,
      "uri": "scene.bin"
    }
  ],
  "images": [
    {
      "uri": "textures/Metal_baseColor.jpeg"
    },
    {
      "uri": "textures/Metal_metallicRoughness.png"
    },
    {
      "uri": "textures/Metal_emissive.jpeg"
    },
    {
      "uri": "textures/Metal_normal.png"
    },
    {
      "uri": "textures/Glass_baseColor.png"
    },
    {
      "uri": "textures/Glass_metallicRoughness.png"
    },
    {
      "uri": "textures/Glass_normal.png"
    },
    {
      "uri": "textures/Leather_baseColor.jpeg"
    },
    {
      "uri": "textures/Leather_metallicRoughness.png"
    },
    {
      "uri": "textures/Leather_emissive.jpeg"
    },
    {
      "uri": "textures/Leather_normal.png"
    }
  ],
  "materials": [
    {
      "doubleSided": true,
      "emissiveFactor": [
        1.0,
        1.0,
        1.0
      ],
      "emissiveTexture": {
        "index": 2
      },
      "name": "Metal",
      "normalTexture": {
        "index": 3
      },
      "pbrMetallicRoughness": {
        "baseColorTexture": {
          "index": 0
        },
        "metallicRoughnessTexture": {
          "index": 1
        }
      }
    },
    {
      "alphaMode": "BLEND",
      "doubleSided": true,
      "name": "Glass",
      "normalTexture": {
        "index": 6
      },
      "pbrMetallicRoughness": {
        "baseColorTexture": {
          "index": 4
        },
        "metallicRoughnessTexture": {
          "index": 5
        }
      }
    },
    {
      "doubleSided": true,
      "emissiveFactor": [
        1.0,
        1.0,
        1.0
      ],
      "emissiveTexture": {
        "index": 9
      },
      "name": "Leather",
      "normalTexture": {
        "index": 10
      },
      "pbrMetallicRoughness": {
        "baseColorTexture": {
          "index": 7
        },
        "metallicRoughnessTexture": {
          "index": 8
        }
      }
    }
  ],
  "meshes": [
    {
      "name": "defaultMaterial",
      "primitives": [
        {
          "attributes": {
            "NORMAL": 1,
            "POSITION": 0,
            "TANGENT": 2,
            "TEXCOORD_0": 3
          },
          "indices": 4,
          "material": 0,
          "mode": 4
        }
      ]
    },
    {
      "name": "defaultMaterial",
      "primitives": [
        {
          "attributes": {
            "NORMAL": 6,
            "POSITION": 5,
            "TANGENT": 7,
            "TEXCOORD_0": 8
          },
          "indices": 9,
          "material": 1,
          "mode": 4
        }
      ]
    },
    {
      "name": "defaultMaterial",
      "primitives": [
        {
          "attributes": {
            "NORMAL": 11,
            "POSITION": 10,
            "TANGENT": 12,
            "TEXCOORD_0": 13
          },
          "indices": 14,
          "material": 2,
          "mode": 4
        }
      ]
    }
  ],
  "nodes": [
    {
      "children": [
        1
      ],
      "matrix": [
        1.0,
        0.0,
        0.0,
        0.0,
        0.0,
        2.220446049250313e-16,
        -1.0,
        0.0,
        0.0,
        1.0,
        2.220446049250313e-16,
        0.0,
        0.0,
        -2.4999999848063217e-09,
        -3.0000000261765085e-09,
        1.0
      ],
      "name": "Sketchfab_model"
    },
    {
      "children": [
        2
      ],
      "matrix": [
        1.0,
        0.0,
        0.0,
        0.0,
        0.0,
        -4.371139006309477e-08,
        0.999999999999999,
        0.0,
        0.0,
        -0.999999999999999,
        -4.371139006309477e-08,
        0.0,
        0.0,
        0.0,
        0.0,
        1.0
      ],
      "name": "Collada visual scene group"
    },
    {
      "children": [
        3,
        4,
        5
      ],
      "name": "g"
    },
    {
      "mesh": 0,
      "name": "defaultMaterial"
    },
    {
      "mesh": 1,
      "name": "defaultMaterial"
    },
    {
      "mesh": 2,
      "name": "defaultMaterial"
    }
  ],
  "samplers": [
    {
      "magFilter": 9729,
      "minFilter": 9987,
      "wrapS": 10497,
      "wrapT": 10497
    }
  ],
  "scene": 0,
  "scenes": [
    {
      "name": "Sketchfab_Scene",
      "nodes": [
        0
      ]
    }
  ],
  "textures": [
    {
      "sampler": 0,
      "source": 0
    },
    {
      "sampler": 0,
      "source": 1
    },
    {
      "sampler": 0,
      "source": 2
    },
    {
      "sampler": 0,
      "source": 3
    },
    {
      "sampler": 0,
      "source": 4
    },
    {
      "sampler": 0,
      "source": 5
    },
    {
      "sampler": 0,
      "source": 6
    },
    {
      "sampler": 0,
      "source": 7
    },
    {
      "sampler": 0,
      "source": 8
    },
    {
      "sampler": 0,
      "source": 9
    },
    {
      "sampler": 0,
      "source": 10
    }
  ]
}
