{
  "accessors": [
    {
      "bufferView": 2,
      "componentType": 5126,
      "count": 5632,
      "max": [
        0.19256141781806946,
        5.318174362182617,
        4.018229007720947
      ],
      "min": [
        -0.19917316734790802,
        2.1874823570251465,
        -3.996753454208374
      ],
      "type": "VEC3"
    },
    {
      "bufferView": 2,
      "byteOffset": 67584,
      "componentType": 5126,
      "count": 5632,
      "max": [
        1.0,
        1.0,
        1.0
      ],
      "min": [
        -1.0,
        -1.0,
        -1.0
      ],
      "type": "VEC3"
    },
    {
      "bufferView": 3,
      "componentType": 5126,
      "count": 5632,
      "max": [
        0.9999794363975525,
        1.0,
        1.0,
        1.0
      ],
      "min": [
        -0.8683400750160217,
        -0.999730110168457,
        -0.9999999403953552,
        1.0
      ],
      "type": "VEC4"
    },
    {
      "bufferView": 1,
      "componentType": 5126,
      "count": 5632,
      "max": [
        0.9884306192398071,
        0.7758540511131287
      ],
      "min": [
        0.009765606373548508,
        0.009765625
      ],
      "type": "VEC2"
    },
    {
      "bufferView": 0,
      "componentType": 5125,
      "count": 8448,
      "type": "SCALAR"
    },
    {
      "bufferView": 2,
      "byteOffset": 135168,
      "componentType": 5126,
      "count": 2029,
      "max": [
        1.3182058334350586,
        0.8979263305664063,
        5.031364917755127
      ],
      "min": [
        -1.3524770736694336,
        0.11955702304840088,
        -5.013323783874512
      ],
      "type": "VEC3"
    },
    {
      "bufferView": 2,
      "byteOffset": 159516,
      "componentType": 5126,
      "count": 2029,
      "max": [
        1.0,
        1.0,
        0.9999978542327881
      ],
      "min": [
        -1.0,
        -1.0,
        -0.9999978542327881
      ],
      "type": "VEC3"
    },
    {
      "bufferView": 3,
      "byteOffset": 90112,
      "componentType": 5126,
      "count": 2029,
      "max": [
        0.999931812286377,
        0.9999905228614807,
        0.9999166131019592,
        1.0
      ],
      "min": [
        -0.9999736547470093,
        -0.9988687634468079,
        -0.9999266862869263,
        -1.0
      ],
      "type": "VEC4"
    },
    {
      "bufferView": 1,
      "byteOffset": 45056,
      "componentType": 5126,
      "count": 2029,
      "max": [
        0.8525110483169556,
        0.8024446964263916
      ],
      "min": [
        0.009765625,
        0.009765625
      ],
      "type": "VEC2"
    },
    {
      "bufferView": 0,
      "byteOffset": 33792,
      "componentType": 5125,
      "count": 3207,
      "type": "SCALAR"
    },
    {
      "bufferView": 2,
      "byteOffset": 183864,
      "componentType": 5126,
      "count": 2287,
      "max": [
        1.125274658203125,
        2.413304567337036,
        4.848001956939697
      ],
      "min": [
        -1.125274658203125,
        1.0301399230957031,
        -4.882101535797119
      ],
      "type": "VEC3"
    },
    {
      "bufferView": 2,
      "byteOffset": 211308,
      "componentType": 5126,
      "count": 2287,
      "max": [
        0.9997551441192627,
        1.0,
        1.0
      ],
      "min": [
        -0.9997551441192627,
        -1.0,
        -1.0
      ],
      "type": "VEC3"
    },
    {
      "bufferView": 3,
      "byteOffset": 122576,
      "componentType": 5126,
      "count": 2287,
      "max": [
        0.9999862909317017,
        0.9997550249099731,
        0.9820258021354675,
        1.0
      ],
      "min": [
        -0.9999968409538269,
        -0.9997550249099731,
        -0.9955326318740845,
        1.0
      ],
      "type": "VEC4"
    },
    {
      "bufferView": 1,
      "byteOffset": 61288,
      "componentType": 5126,
      "count": 2287,
      "max": [
        0.9655333757400513,
        0.990234375
      ],
      "min": [
        0.009765625,
        0.009765625
      ],
      "type": "VEC2"
    },
    {
      "bufferView": 0,
      "byteOffset": 46620,
      "componentType": 5125,
      "count": 3753,
      "type": "SCALAR"
    },
    {
      "bufferView": 2,
      "byteOffset": 238752,
      "componentType": 5126,
      "count": 480,
      "max": [
        1.348705530166626,
        1.0073504447937012,
        5.035951614379883
      ],
      "min": [
        -1.368799090385437,
        0.8111804127693176,
        -5.029458522796631
      ],
      "type": "VEC3"
    },
    {
      "bufferView": 2,
      "byteOffset": 244512,
      "componentType": 5126,
      "count": 480,
      "max": [
        0.9995492100715637,
        0.9995259642601013,
        1.0
      ],
      "min": [
        -0.9994472861289978,
        -0.9981428980827332,
        -0.9999995827674866
      ],
      "type": "VEC3"
    },
    {
      "bufferView": 3,
      "byteOffset": 159168,
      "componentType": 5126,
      "count": 480,
      "max": [
        0.9999997615814209,
        0.999995231628418,
        0.9919916987419128,
        1.0
      ],
      "min": [
        -0.9995825886726379,
        -0.9999850392341614,
        -0.9986890554428101,
        1.0
      ],
      "type": "VEC4"
    },
    {
      "bufferView": 1,
      "byteOffset": 79584,
      "componentType": 5126,
      "count": 480,
      "max": [
        0.9526620507240295,
        0.94452965259552
      ],
      "min": [
        0.009765625,
        0.009765610098838806
      ],
      "type": "VEC2"
    },
    {
      "bufferView": 0,
      "byteOffset": 61632,
      "componentType": 5125,
      "count": 720,
      "type": "SCALAR"
    },
    {
      "bufferView": 2,
      "byteOffset": 250272,
      "componentType": 5126,
      "count": 696,
      "max": [
        1.0543135404586792,
        1.1048657894134521,
        4.821274280548096
      ],
      "min": [
        -1.0543135404586792,
        0.3417097330093384,
        -4.821274280548096
      ],
      "type": "VEC3"
    },
    {
      "bufferView": 2,
      "byteOffset": 258624,
      "componentType": 5126,
      "count": 696,
      "max": [
        0.9999931454658508,
        1.0,
        0.9999889731407166
      ],
      "min": [
        -0.999993085861206,
        -1.0,
        -0.9999889731407166
      ],
      "type": "VEC3"
    },
    {
      "bufferView": 3,
      "byteOffset": 166848,
      "componentType": 5126,
      "count": 696,
      "max": [
        0.9834148287773132,
        0.9843882322311401,
        0.9970579147338867,
        1.0
      ],
      "min": [
        -0.9978446960449219,
        -0.9997073411941528,
        -0.9990013241767883,
        1.0
      ],
      "type": "VEC4"
    },
    {
      "bufferView": 1,
      "byteOffset": 83424,
      "componentType": 5126,
      "count": 696,
      "max": [
        0.7357118725776672,
        0.5483015775680542
      ],
      "min": [
        0.009765625,
        0.009765625
      ],
      "type": "VEC2"
    },
    {
      "bufferView": 0,
      "byteOffset": 64512,
      "componentType": 5125,
      "count": 1044,
      "type": "SCALAR"
    },
    {
      "bufferView": 2,
      "byteOffset": 266976,
      "componentType": 5126,
      "count": 2744,
      "max": [
        0.7375776767730713,
        1.0992076396942139,
        4.794867038726807
      ],
      "min": [
        -0.7107388377189636,
        0.6277867555618286,
        -4.766625881195068
      ],
      "type": "VEC3"
    },
    {
      "bufferView": 2,
      "byteOffset": 299904,
      "componentType": 5126,
      "count": 2744,
      "max": [
        0.9780630469322205,
        0.9996585845947266,
        0.9999531507492065
      ],
      "min": [
        -0.9969428181648254,
        -0.9753819704055786,
        -0.9999530911445618
      ],
      "type": "VEC3"
    },
    {
      "bufferView": 3,
      "byteOffset": 177984,
      "componentType": 5126,
      "count": 2744,
      "max": [
        0.9999552965164185,
        0.9999825954437256,
        0.9999996423721313,
        1.0
      ],
      "min": [
        -0.9996531009674072,
        -0.9999850988388062,
        -0.9999976754188538,
        1.0
      ],
      "type": "VEC4"
    },
    {
      "bufferView": 1,
      "byteOffset": 88992,
      "componentType": 5126,
      "count": 2744,
      "max": [
        0.9900772571563721,
        0.7623798847198486
      ],
      "min": [
        0.009765625,
        0.009765625
      ],
      "type": "VEC2"
    },
    {
      "bufferView": 0,
      "byteOffset": 68688,
      "componentType": 5125,
      "count": 4200,
      "type": "SCALAR"
    },
    {
      "bufferView": 2,
      "byteOffset": 332832,
      "componentType": 5126,
      "count": 296,
      "max": [
        0.7425453066825867,
        1.0992076396942139,
        4.365939617156982
      ],
      "min": [
        -0.7107388377189636,
        0.6277867555618286,
        -4.337698459625244
      ],
      "type": "VEC3"
    },
    {
      "bufferView": 2,
      "byteOffset": 336384,
      "componentType": 5126,
      "count": 296,
      "max": [
        1.0,
        0.9995973706245422,
        0.0028576680924743414
      ],
      "min": [
        -1.0,
        -1.0,
        -0.002857664367184043
      ],
      "type": "VEC3"
    },
    {
      "bufferView": 3,
      "byteOffset": 221888,
      "componentType": 5126,
      "count": 296,
      "max": [
        0.6417993903160095,
        0.902076005935669,
        0.7752252221107483,
        1.0
      ],
      "min": [
        -0.903415858745575,
        -0.9034426808357239,
        -0.9932021498680115,
        1.0
      ],
      "type": "VEC4"
    },
    {
      "bufferView": 1,
      "byteOffset": 110944,
      "componentType": 5126,
      "count": 296,
      "max": [
        0.6382332444190979,
        0.7127885222434998
      ],
      "min": [
        0.009765625,
        0.3192524015903473
      ],
      "type": "VEC2"
    },
    {
      "bufferView": 0,
      "byteOffset": 85488,
      "componentType": 5125,
      "count": 444,
      "type": "SCALAR"
    },
    {
      "bufferView": 2,
      "byteOffset": 339936,
      "componentType": 5126,
      "count": 4008,
      "max": [
        1.3182058334350586,
        0.9143076539039612,
        4.862971305847168
      ],
      "min": [
        -1.3524770736694336,
        0.12231934070587158,
        -4.900546550750732
      ],
      "type": "VEC3"
    },
    {
      "bufferView": 2,
      "byteOffset": 388032,
      "componentType": 5126,
      "count": 4008,
      "max": [
        1.0,
        1.0,
        0.9999978542327881
      ],
      "min": [
        -1.0,
        -1.0,
        -0.9999978542327881
      ],
      "type": "VEC3"
    },
    {
      "bufferView": 3,
      "byteOffset": 226624,
      "componentType": 5126,
      "count": 4008,
      "max": [
        0.9999966621398926,
        0.9999971389770508,
        0.9999997019767761,
        1.0
      ],
      "min": [
        -0.9999999403953552,
        -0.9999245405197144,
        -0.9998769164085388,
        -1.0
      ],
      "type": "VEC4"
    },
    {
      "bufferView": 1,
      "byteOffset": 113312,
      "componentType": 5126,
      "count": 4008,
      "max": [
        0.8823174834251404,
        0.7857019901275635
      ],
      "min": [
        0.009765625,
        0.009765625
      ],
      "type": "VEC2"
    },
    {
      "bufferView": 0,
      "byteOffset": 87264,
      "componentType": 5125,
      "count": 6408,
      "type": "SCALAR"
    }
  ],
  "asset": {
    "extras": {
      "author": "Lucy Greenhill (https://sketchfab.com/Leafalu)",
      "license": "CC-BY-4.0 (http://creativecommons.org/licenses/by/4.0/)",
      "source": "https://sketchfab.com/3d-models/crocodile-light-f999868f2aef4ddaa5c4e5341fec1c06",
      "title": "Crocodile Light"
    },
    "generator": "Sketchfab-13.23.0",
    "version": "2.0"
  },
  "bufferViews": [
    {
      "buffer": 0,
      "byteLength": 112896,
      "name": "floatBufferViews",
      "target": 34963
    },
    {
      "buffer": 0,
      "byteLength": 145376,
      "byteOffset": 112896,
      "byteStride": 8,
      "name": "floatBufferViews",
      "target": 34962
    },
    {
      "buffer": 0,
      "byteLength": 436128,
      "byteOffset": 258272,
      "byteStride": 12,
      "name": "floatBufferViews",
      "target": 34962
    },
    {
      "buffer": 0,
      "byteLength": 290752,
      "byteOffset": 694400,
      "byteStride": 16,
      "name": "floatBufferViews",
      "target": 34962
    }
  ],
  "buffers": [
    {
      "byteLength": 985152,
      "uri": "e.bin"
    }
  ],
  "images": [
    {
      "uri": "textures/chains_baseColor.png"
    },
    {
      "uri": "textures/chains_metallicRoughness.png"
    },
    {
      "uri": "textures/chains_normal.png"
    },
    {
      "uri": "textures/lightly_rusted_cage_baseColor.png"
    },
    {
      "uri": "textures/lightly_rusted_cage_metallicRoughness.png"
    },
    {
      "uri": "textures/lightly_rusted_cage_normal.png"
    },
    {
      "uri": "textures/material_baseColor.png"
    },
    {
      "uri": "textures/material_metallicRoughness.png"
    },
    {
      "uri": "textures/material_normal.png"
    },
    {
      "uri": "textures/brim_baseColor.png"
    },
    {
      "uri": "textures/brim_metallicRoughness.png"
    },
    {
      "uri": "textures/brim_normal.png"
    },
    {
      "uri": "textures/light_cover_baseColor.png"
    },
    {
      "uri": "textures/light_cover_metallicRoughness.png"
    },
    {
      "uri": "textures/light_cover_normal.png"
    },
    {
      "uri": "textures/JOINT_baseColor.png"
    },
    {
      "uri": "textures/JOINT_metallicRoughness.png"
    },
    {
      "uri": "textures/JOINT_normal.png"
    },
    {
      "uri": "textures/light_1_baseColor.png"
    },
    {
      "uri": "textures/light_1_metallicRoughness.png"
    },
    {
      "uri": "textures/light_1_normal.png"
    },
    {
      "uri": "textures/cage_baseColor.png"
    },
    {
      "uri": "textures/cage_metallicRoughness.png"
    },
    {
      "uri": "textures/cage_normal.png"
    }
  ],
  "materials": [
    {
      "doubleSided": true,
      "name": "chains",
      "normalTexture": {
        "index": 2
      },
      "pbrMetallicRoughness": {
        "baseColorTexture": {
          "index": 0
        },
        "metallicRoughnessTexture": {
          "index": 1
        }
      }
    },
    {
      "doubleSided": true,
      "name": "lightly_rusted_cage",
      "normalTexture": {
        "index": 5
      },
      "pbrMetallicRoughness": {
        "baseColorTexture": {
          "index": 3
        },
        "metallicRoughnessTexture": {
          "index": 4
        }
      }
    },
    {
      "doubleSided": true,
      "name": "material",
      "normalTexture": {
        "index": 8
      },
      "pbrMetallicRoughness": {
        "baseColorTexture": {
          "index": 6
        },
        "metallicRoughnessTexture": {
          "index": 7
        }
      }
    },
    {
      "doubleSided": true,
      "name": "brim",
      "normalTexture": {
        "index": 11
      },
      "pbrMetallicRoughness": {
        "baseColorTexture": {
          "index": 9
        },
        "metallicRoughnessTexture": {
          "index": 10
        }
      }
    },
    {
      "doubleSided": true,
      "name": "light_cover",
      "normalTexture": {
        "index": 14
      },
      "pbrMetallicRoughness": {
        "baseColorTexture": {
          "index": 12
        },
        "metallicRoughnessTexture": {
          "index": 13
        }
      }
    },
    {
      "doubleSided": true,
      "name": "JOINT",
      "normalTexture": {
        "index": 17
      },
      "pbrMetallicRoughness": {
        "baseColorTexture": {
          "index": 15
        },
        "metallicRoughnessTexture": {
          "index": 16
        }
      }
    },
    {
      "doubleSided": true,
      "name": "light_1",
      "normalTexture": {
        "index": 20
      },
      "pbrMetallicRoughness": {
        "baseColorTexture": {
          "index": 18
        },
        "metallicRoughnessTexture": {
          "index": 19
        }
      }
    },
    {
      "doubleSided": true,
      "name": "cage",
      "normalTexture": {
        "index": 23
      },
      "pbrMetallicRoughness": {
        "baseColorTexture": {
          "index": 21
        },
        "metallicRoughnessTexture": {
          "index": 22
        }
      }
    }
  ],
  "meshes": [
    {
      "name": "croc_light_chains_0",
      "primitives": [
        {
          "attributes": {
            "NORMAL": 1,
            "POSITION": 0,
            "TANGENT": 2,
            "TEXCOORD_0": 3
          },
          "indices": 4,
          "material": 0,
          "mode": 4
        }
      ]
    },
    {
      "name": "croc_light_lightly_rusted_cage_0",
      "primitives": [
        {
          "attributes": {
            "NORMAL": 6,
            "POSITION": 5,
            "TANGENT": 7,
            "TEXCOORD_0": 8
          },
          "indices": 9,
          "material": 1,
          "mode": 4
        }
      ]
    },
    {
      "name": "croc_light_Top_0",
      "primitives": [
        {
          "attributes": {
            "NORMAL": 11,
            "POSITION": 10,
            "TANGENT": 12,
            "TEXCOORD_0": 13
          },
          "indices": 14,
          "material": 2,
          "mode": 4
        }
      ]
    },
    {
      "name": "croc_light_brim_0",
      "primitives": [
        {
          "attributes": {
            "NORMAL": 16,
            "POSITION": 15,
            "TANGENT": 17,
            "TEXCOORD_0": 18
          },
          "indices": 19,
          "material": 3,
          "mode": 4
        }
      ]
    },
    {
      "name": "croc_light_light_cover_0",
      "primitives": [
        {
          "attributes": {
            "NORMAL": 21,
            "POSITION": 20,
            "TANGENT": 22,
            "TEXCOORD_0": 23
          },
          "indices": 24,
          "material": 4,
          "mode": 4
        }
      ]
    },
    {
      "name": "croc_light_JOINT_0",
      "primitives": [
        {
          "attributes": {
            "NORMAL": 26,
            "POSITION": 25,
            "TANGENT": 27,
            "TEXCOORD_0": 28
          },
          "indices": 29,
          "material": 5,
          "mode": 4
        }
      ]
    },
    {
      "name": "croc_light_light_1_0",
      "primitives": [
        {
          "attributes": {
            "NORMAL": 31,
            "POSITION": 30,
            "TANGENT": 32,
            "TEXCOORD_0": 33
          },
          "indices": 34,
          "material": 6,
          "mode": 4
        }
      ]
    },
    {
      "name": "croc_light_cage_0",
      "primitives": [
        {
          "attributes": {
            "NORMAL": 36,
            "POSITION": 35,
            "TANGENT": 37,
            "TEXCOORD_0": 38
          },
          "indices": 39,
          "material": 7,
          "mode": 4
        }
      ]
    }
  ],
  "nodes": [
    {
      "children": [
        1
      ],
      "matrix": [
        1.0,
        0.0,
        0.0,
        0.0,
        0.0,
        2.220446049250313e-16,
        -1.0,
        0.0,
        0.0,
        1.0,
        2.220446049250313e-16,
        0.0,
        0.0,
        0.0,
        0.0,
        1.0
      ],
      "name": "Sketchfab_model"
    },
    {
      "children": [
        2
      ],
      "matrix": [
        0.009999999776482582,
        0.0,
        0.0,
        0.0,
        0.0,
        0.0,
        0.009999999776482582,
        0.0,
        0.0,
        -0.009999999776482582,
        0.0,
        0.0,
        0.0,
        0.0,
        0.0,
        1.0
      ],
      "name": "7b31b7e2d73144a4b084debb07af474e.fbx"
    },
    {
      "children": [
        3
      ],
      "name": "RootNode"
    },
    {
      "children": [
        4,
        5,
        6,
        7,
        8,
        9,
        10,
        11
      ],
      "name": "croc_light"
    },
    {
      "mesh": 0,
      "name": "croc_light_chains_0"
    },
    {
      "mesh": 1,
      "name": "croc_light_lightly_rusted_cage_0"
    },
    {
      "mesh": 2,
      "name": "croc_light_Top_0"
    },
    {
      "mesh": 3,
      "name": "croc_light_brim_0"
    },
    {
      "mesh": 4,
      "name": "croc_light_light_cover_0"
    },
    {
      "mesh": 5,
      "name": "croc_light_JOINT_0"
    },
    {
      "mesh": 6,
      "name": "croc_light_light_1_0"
    },
    {
      "mesh": 7,
      "name": "croc_light_cage_0"
    }
  ],
  "samplers": [
    {
      "magFilter": 9729,
      "minFilter": 9987,
      "wrapS": 10497,
      "wrapT": 10497
    }
  ],
  "scene": 0,
  "scenes": [
    {
      "name": "Sketchfab_Scene",
      "nodes": [
        0
      ]
    }
  ],
  "textures": [
    {
      "sampler": 0,
      "source": 0
    },
    {
      "sampler": 0,
      "source": 1
    },
    {
      "sampler": 0,
      "source": 2
    },
    {
      "sampler": 0,
      "source": 3
    },
    {
      "sampler": 0,
      "source": 4
    },
    {
      "sampler": 0,
      "source": 5
    },
    {
      "sampler": 0,
      "source": 6
    },
    {
      "sampler": 0,
      "source": 7
    },
    {
      "sampler": 0,
      "source": 8
    },
    {
      "sampler": 0,
      "source": 9
    },
    {
      "sampler": 0,
      "source": 10
    },
    {
      "sampler": 0,
      "source": 11
    },
    {
      "sampler": 0,
      "source": 12
    },
    {
      "sampler": 0,
      "source": 13
    },
    {
      "sampler": 0,
      "source": 14
    },
    {
      "sampler": 0,
      "source": 15
    },
    {
      "sampler": 0,
      "source": 16
    },
    {
      "sampler": 0,
      "source": 17
    },
    {
      "sampler": 0,
      "source": 18
    },
    {
      "sampler": 0,
      "source": 19
    },
    {
      "sampler": 0,
      "source": 20
    },
    {
      "sampler": 0,
      "source": 21
    },
    {
      "sampler": 0,
      "source": 22
    },
    {
      "sampler": 0,
      "source": 23
    }
  ]
}
