{
  "accessors": [
    {
      "bufferView": 2,
      "componentType": 5126,
      "count": 31,
      "max": [
        0.6024209856987,
        -0.0012009999481961131,
        1.687391996383667
      ],
      "min": [
        -0.6724380254745483,
        -0.06204799935221672,
        0.000299000006634742
      ],
      "type": "VEC3"
    },
    {
      "bufferView": 2,
      "byteOffset": 372,
      "componentType": 5126,
      "count": 31,
      "max": [
        0.3675978481769562,
        -0.9230160713195801,
        0.21084626019001007
      ],
      "min": [
        -0.306321382522583,
        -1.0,
        -0.18229511380195618
      ],
      "type": "VEC3"
    },
    {
      "bufferView": 1,
      "componentType": 5126,
      "count": 31,
      "max": [
        0.7461000084877014,
        1.0
      ],
      "min": [
        0.0,
        0.0
      ],
      "type": "VEC2"
    },
    {
      "bufferView": 0,
      "componentType": 5125,
      "count": 51,
      "type": "SCALAR"
    },
    {
      "bufferView": 2,
      "byteOffset": 744,
      "componentType": 5126,
      "count": 12,
      "max": [
        0.015752999112010002,
        0.028891000896692276,
        1.5935540199279785
      ],
      "min": [
        -0.0032579998951405287,
        -0.031484998762607574,
        1.5851479768753052
      ],
      "type": "VEC3"
    },
    {
      "bufferView": 2,
      "byteOffset": 888,
      "componentType": 5126,
      "count": 12,
      "max": [
        0.9842081665992737,
        0.9697481393814087,
        0.9976503252983093
      ],
      "min": [
        -0.9507662057876587,
        -0.17701511085033417,
        -0.9976508617401123
      ],
      "type": "VEC3"
    },
    {
      "bufferView": 3,
      "componentType": 5126,
      "count": 12,
      "max": [
        0.6694988012313843,
        0.9888131618499756,
        0.7234260439872742,
        -1.0
      ],
      "min": [
        -0.18159346282482147,
        -0.16860075294971466,
        -0.9823151230812073,
        -1.0
      ],
      "type": "VEC4"
    },
    {
      "bufferView": 1,
      "byteOffset": 248,
      "componentType": 5126,
      "count": 12,
      "max": [
        1.2422000169754028,
        0.5199999809265137
      ],
      "min": [
        0.8744999766349792,
        0.3230000138282776
      ],
      "type": "VEC2"
    },
    {
      "bufferView": 1,
      "byteOffset": 344,
      "componentType": 5126,
      "count": 12,
      "max": [
        1.2422000169754028,
        0.5199999809265137
      ],
      "min": [
        0.8744999766349792,
        0.3230000138282776
      ],
      "type": "VEC2"
    },
    {
      "bufferView": 1,
      "byteOffset": 440,
      "componentType": 5126,
      "count": 12,
      "max": [
        1.2422000169754028,
        0.5199999809265137
      ],
      "min": [
        0.8744999766349792,
        0.3230000138282776
      ],
      "type": "VEC2"
    },
    {
      "bufferView": 1,
      "byteOffset": 536,
      "componentType": 5126,
      "count": 12,
      "max": [
        1.2422000169754028,
        0.5199999809265137
      ],
      "min": [
        0.8744999766349792,
        0.3230000138282776
      ],
      "type": "VEC2"
    },
    {
      "bufferView": 0,
      "byteOffset": 204,
      "componentType": 5125,
      "count": 12,
      "type": "SCALAR"
    },
    {
      "bufferView": 2,
      "byteOffset": 1032,
      "componentType": 5126,
      "count": 186,
      "max": [
        0.03444499894976616,
        -0.018928000703454018,
        1.6189219951629639
      ],
      "min": [
        -0.029651999473571777,
        -0.08225400000810623,
        1.5573660135269165
      ],
      "type": "VEC3"
    },
    {
      "bufferView": 2,
      "byteOffset": 3264,
      "componentType": 5126,
      "count": 186,
      "max": [
        0.9302187561988831,
        0.9918058514595032,
        0.9612265229225159
      ],
      "min": [
        -0.9982669353485107,
        -0.993649959564209,
        -0.9551423788070679
      ],
      "type": "VEC3"
    },
    {
      "bufferView": 3,
      "byteOffset": 192,
      "componentType": 5126,
      "count": 186,
      "max": [
        0.9692112803459167,
        0.9956256151199341,
        0.7461114525794983,
        -1.0
      ],
      "min": [
        -0.9798652529716492,
        -0.992416262626648,
        -0.8826358914375305,
        -1.0
      ],
      "type": "VEC4"
    },
    {
      "bufferView": 1,
      "byteOffset": 632,
      "componentType": 5126,
      "count": 186,
      "max": [
        1.2763999700546265,
        1.4248000383377075
      ],
      "min": [
        0.7656000256538391,
        -0.3976999521255493
      ],
      "type": "VEC2"
    },
    {
      "bufferView": 1,
      "byteOffset": 2120,
      "componentType": 5126,
      "count": 186,
      "max": [
        1.2763999700546265,
        1.4248000383377075
      ],
      "min": [
        0.7656000256538391,
        -0.3976999521255493
      ],
      "type": "VEC2"
    },
    {
      "bufferView": 1,
      "byteOffset": 3608,
      "componentType": 5126,
      "count": 186,
      "max": [
        1.2763999700546265,
        1.4248000383377075
      ],
      "min": [
        0.7656000256538391,
        -0.3976999521255493
      ],
      "type": "VEC2"
    },
    {
      "bufferView": 1,
      "byteOffset": 5096,
      "componentType": 5126,
      "count": 186,
      "max": [
        1.2763999700546265,
        1.4248000383377075
      ],
      "min": [
        0.7656000256538391,
        -0.3976999521255493
      ],
      "type": "VEC2"
    },
    {
      "bufferView": 0,
      "byteOffset": 252,
      "componentType": 5125,
      "count": 480,
      "type": "SCALAR"
    }
  ],
  "asset": {
    "extras": {
      "author": "kraymiler (https://sketchfab.com/kraymiler)",
      "license": "CC-BY-4.0 (http://creativecommons.org/licenses/by/4.0/)",
      "source": "https://sketchfab.com/3d-models/the-final-storm-prototype-missing-poster-66b3dcf3c4fe44fa8fab6d15725a2407",
      "title": "The Final Storm Prototype: Missing poster"
    },
    "generator": "Sketchfab-16.56.0",
    "version": "2.0"
  },
  "bufferViews": [
    {
      "buffer": 0,
      "byteLength": 2172,
      "name": "floatBufferViews",
      "target": 34963
    },
    {
      "buffer": 0,
      "byteLength": 6584,
      "byteOffset": 2172,
      "byteStride": 8,
      "name": "floatBufferViews",
      "target": 34962
    },
    {
      "buffer": 0,
      "byteLength": 5496,
      "byteOffset": 8756,
      "byteStride": 12,
      "name": "floatBufferViews",
      "target": 34962
    },
    {
      "buffer": 0,
      "byteLength": 3168,
      "byteOffset": 14252,
      "byteStride": 16,
      "name": "floatBufferViews",
      "target": 34962
    }
  ],
  "buffers": [
    {
      "byteLength": 17420,
      "uri": "scene.bin"
    }
  ],
  "images": [
    {
      "uri": "textures/PosterMissing_Inst_baseColor.png"
    },
    {
      "uri": "textures/metal_2_Inst_baseColor.png"
    },
    {
      "uri": "textures/metal_2_Inst_metallicRoughness.png"
    },
    {
      "uri": "textures/metal_2_Inst_normal.png"
    },
    {
      "uri": "textures/plastic_blue_gloss_Inst_baseColor.png"
    },
    {
      "uri": "textures/plastic_blue_gloss_Inst_metallicRoughness.png"
    },
    {
      "uri": "textures/plastic_blue_gloss_Inst_normal.png"
    }
  ],
  "materials": [
    {
      "doubleSided": true,
      "name": "PosterMissing_Inst",
      "pbrMetallicRoughness": {
        "baseColorTexture": {
          "index": 0
        },
        "metallicFactor": 0.0,
        "roughnessFactor": 0.5
      }
    },
    {
      "doubleSided": true,
      "name": "metal_2_Inst",
      "normalTexture": {
        "index": 3
      },
      "pbrMetallicRoughness": {
        "baseColorTexture": {
          "index": 1
        },
        "metallicRoughnessTexture": {
          "index": 2
        }
      }
    },
    {
      "doubleSided": true,
      "name": "plastic_blue_gloss_Inst",
      "normalTexture": {
        "index": 6
      },
      "pbrMetallicRoughness": {
        "baseColorTexture": {
          "index": 4
        },
        "metallicRoughnessTexture": {
          "index": 5
        }
      }
    }
  ],
  "meshes": [
    {
      "name": "Object_0",
      "primitives": [
        {
          "attributes": {
            "NORMAL": 1,
            "POSITION": 0,
            "TEXCOORD_0": 2
          },
          "indices": 3,
          "material": 0,
          "mode": 4
        }
      ]
    },
    {
      "name": "Object_1",
      "primitives": [
        {
          "attributes": {
            "NORMAL": 5,
            "POSITION": 4,
            "TANGENT": 6,
            "TEXCOORD_0": 7,
            "TEXCOORD_1": 8,
            "TEXCOORD_2": 9,
            "TEXCOORD_3": 10
          },
          "indices": 11,
          "material": 1,
          "mode": 4
        }
      ]
    },
    {
      "name": "Object_2",
      "primitives": [
        {
          "attributes": {
            "NORMAL": 13,
            "POSITION": 12,
            "TANGENT": 14,
            "TEXCOORD_0": 15,
            "TEXCOORD_1": 16,
            "TEXCOORD_2": 17,
            "TEXCOORD_3": 18
          },
          "indices": 19,
          "material": 2,
          "mode": 4
        }
      ]
    }
  ],
  "nodes": [
    {
      "children": [
        1
      ],
      "matrix": [
        1.0,
        0.0,
        0.0,
        0.0,
        0.0,
        2.220446049250313e-16,
        -1.0,
        0.0,
        0.0,
        1.0,
        2.220446049250313e-16,
        0.0,
        0.0,
        0.0,
        0.0,
        1.0
      ],
      "name": "Sketchfab_model"
    },
    {
      "children": [
        2
      ],
      "name": "root"
    },
    {
      "children": [
        3
      ],
      "matrix": [
        1.0,
        0.0,
        0.0,
        0.0,
        0.0,
        2.220446049250313e-16,
        1.0,
        0.0,
        0.0,
        -1.0,
        2.220446049250313e-16,
        0.0,
        0.0,
        0.0,
        0.0,
        1.0
      ],
      "name": "GLTF_SceneRootNode"
    },
    {
      "children": [
        4
      ],
      "matrix": [
        1.0,
        0.0,
        -0.0,
        0.0,
        -0.0,
        0.0,
        -1.0,
        0.0,
        0.0,
        1.0,
        0.0,
        0.0,
        0.0,
        0.0,
        0.0,
        1.0
      ],
      "name": "Missing_poster_4"
    },
    {
      "children": [
        5,
        7,
        9
      ],
      "name": "Missing_3"
    },
    {
      "children": [
        6
      ],
      "name": "Object_2_0"
    },
    {
      "mesh": 0,
      "name": "Object_6"
    },
    {
      "children": [
        8
      ],
      "name": "Object_3_1"
    },
    {
      "mesh": 1,
      "name": "Object_8"
    },
    {
      "children": [
        10
      ],
      "name": "Object_4_2"
    },
    {
      "mesh": 2,
      "name": "Object_10"
    }
  ],
  "samplers": [
    {
      "magFilter": 9729,
      "minFilter": 9987,
      "wrapS": 10497,
      "wrapT": 10497
    }
  ],
  "scene": 0,
  "scenes": [
    {
      "name": "Sketchfab_Scene",
      "nodes": [
        0
      ]
    }
  ],
  "textures": [
    {
      "sampler": 0,
      "source": 0
    },
    {
      "sampler": 0,
      "source": 1
    },
    {
      "sampler": 0,
      "source": 2
    },
    {
      "sampler": 0,
      "source": 3
    },
    {
      "sampler": 0,
      "source": 4
    },
    {
      "sampler": 0,
      "source": 5
    },
    {
      "sampler": 0,
      "source": 6
    }
  ]
}
