{
  "accessors": [
    {
      "bufferView": 2,
      "componentType": 5126,
      "count": 54,
      "max": [
        3.899998664855957,
        7.872359752655029,
        0.5704857110977173
      ],
      "min": [
        -3.8999996185302734,
        0.060728609561920166,
        -0.3706924319267273
      ],
      "type": "VEC3"
    },
    {
      "bufferView": 2,
      "byteOffset": 648,
      "componentType": 5126,
      "count": 54,
      "max": [
        0.22937041521072388,
        1.1934630492760334e-05,
        1.0
      ],
      "min": [
        -0.6811090707778931,
        -0.7970335483551025,
        -0.9999041557312012
      ],
      "type": "VEC3"
    },
    {
      "bufferView": 1,
      "componentType": 5126,
      "count": 54,
      "max": [
        0.49215495586395264,
        0.991241991519928
      ],
      "min": [
        0.001368049532175064,
        0.018052726984024048
      ],
      "type": "VEC2"
    },
    {
      "bufferView": 0,
      "componentType": 5125,
      "count": 168,
      "type": "SCALAR"
    },
    {
      "bufferView": 2,
      "byteOffset": 1296,
      "componentType": 5126,
      "count": 54,
      "max": [
        3.899998664855957,
        7.872359752655029,
        0.5704857110977173
      ],
      "min": [
        -3.8999996185302734,
        0.060728609561920166,
        -0.3706924319267273
      ],
      "type": "VEC3"
    },
    {
      "bufferView": 2,
      "byteOffset": 1944,
      "componentType": 5126,
      "count": 54,
      "max": [
        0.22937041521072388,
        1.1934630492760334e-05,
        1.0
      ],
      "min": [
        -0.6811090707778931,
        -0.7970335483551025,
        -0.9999041557312012
      ],
      "type": "VEC3"
    },
    {
      "bufferView": 1,
      "byteOffset": 432,
      "componentType": 5126,
      "count": 54,
      "max": [
        0.9963012933731079,
        0.991241991519928
      ],
      "min": [
        0.5055144429206848,
        0.018052726984024048
      ],
      "type": "VEC2"
    },
    {
      "bufferView": 0,
      "byteOffset": 672,
      "componentType": 5125,
      "count": 168,
      "type": "SCALAR"
    }
  ],
  "asset": {
    "extras": {
      "author": "Jan_Strydom (https://sketchfab.com/JanStrydom)",
      "license": "CC-BY-4.0 (http://creativecommons.org/licenses/by/4.0/)",
      "source": "https://sketchfab.com/3d-models/ps1-style-newspaper--bloody-and-normal-versions-3ed544a635354217a1404f3b2426998d",
      "title": "PS1 Style Newspaper_ Bloody and Normal Versions"
    },
    "generator": "Sketchfab-16.10.0",
    "version": "2.0"
  },
  "bufferViews": [
    {
      "buffer": 0,
      "byteLength": 1344,
      "name": "floatBufferViews",
      "target": 34963
    },
    {
      "buffer": 0,
      "byteLength": 864,
      "byteOffset": 1344,
      "byteStride": 8,
      "name": "floatBufferViews",
      "target": 34962
    },
    {
      "buffer": 0,
      "byteLength": 2592,
      "byteOffset": 2208,
      "byteStride": 12,
      "name": "floatBufferViews",
      "target": 34962
    }
  ],
  "buffers": [
    {
      "byteLength": 4800,
      "uri": "scene.bin"
    }
  ],
  "extensionsUsed": [
    "KHR_materials_unlit"
  ],
  "images": [
    {
      "uri": "textures/Newspaper_Texture02_baseColor.png"
    }
  ],
  "materials": [
    {
      "doubleSided": true,
      "extensions": {
        "KHR_materials_unlit": {}
      },
      "name": "Newspaper_Texture02",
      "pbrMetallicRoughness": {
        "baseColorTexture": {
          "index": 0
        },
        "metallicFactor": 0.0
      }
    }
  ],
  "meshes": [
    {
      "name": "Newspaper01_Newspaper Texture02_0",
      "primitives": [
        {
          "attributes": {
            "NORMAL": 1,
            "POSITION": 0,
            "TEXCOORD_0": 2
          },
          "indices": 3,
          "material": 0,
          "mode": 4
        }
      ]
    },
    {
      "name": "Newspaper02_Newspaper Texture02_0",
      "primitives": [
        {
          "attributes": {
            "NORMAL": 5,
            "POSITION": 4,
            "TEXCOORD_0": 6
          },
          "indices": 7,
          "material": 0,
          "mode": 4
        }
      ]
    }
  ],
  "nodes": [
    {
      "children": [
        1
      ],
      "matrix": [
        1.0,
        0.0,
        0.0,
        0.0,
        0.0,
        2.220446049250313e-16,
        -1.0,
        0.0,
        0.0,
        1.0,
        2.220446049250313e-16,
        0.0,
        0.0,
        0.0,
        0.0,
        1.0
      ],
      "name": "Sketchfab_model"
    },
    {
      "children": [
        2
      ],
      "matrix": [
        0.02539999969303608,
        0.0,
        0.0,
        0.0,
        0.0,
        0.0,
        0.02539999969303608,
        0.0,
        0.0,
        -0.02539999969303608,
        0.0,
        0.0,
        0.0,
        0.0,
        0.0,
        1.0
      ],
      "name": "47f40639606442f7baedac6b0e6e0d69.fbx"
    },
    {
      "children": [
        3,
        5
      ],
      "name": "RootNode"
    },
    {
      "children": [
        4
      ],
      "matrix": [
        1.5363479852676392,
        0.0,
        0.0,
        0.0,
        0.0,
        1.5363479852676187,
        2.503028626591408e-07,
        0.0,
        0.0,
        -2.503028626591408e-07,
        1.5363479852676187,
        0.0,
        0.0,
        0.0,
        0.0,
        1.0
      ],
      "name": "Newspaper01"
    },
    {
      "mesh": 0,
      "name": "Newspaper01_Newspaper Texture02_0"
    },
    {
      "children": [
        6
      ],
      "matrix": [
        1.5363479852676392,
        0.0,
        0.0,
        0.0,
        0.0,
        1.5363479852676187,
        2.503028626591408e-07,
        0.0,
        0.0,
        -2.503028626591408e-07,
        1.5363479852676187,
        0.0,
        12.536031723022461,
        0.0,
        0.0,
        1.0
      ],
      "name": "Newspaper02"
    },
    {
      "mesh": 1,
      "name": "Newspaper02_Newspaper Texture02_0"
    }
  ],
  "samplers": [
    {
      "magFilter": 9729,
      "minFilter": 9987,
      "wrapS": 10497,
      "wrapT": 10497
    }
  ],
  "scene": 0,
  "scenes": [
    {
      "name": "Sketchfab_Scene",
      "nodes": [
        0
      ]
    }
  ],
  "textures": [
    {
      "sampler": 0,
      "source": 0
    }
  ]
}
