{
  "accessors": [
    {
      "bufferView": 2,
      "componentType": 5126,
      "count": 192,
      "max": [
        0.9999990463256836,
        1.000000238418579,
        2.036029815673828
      ],
      "min": [
        -1.0000009536743164,
        -0.9999997615814209,
        -0.08482521772384644
      ],
      "type": "VEC3"
    },
    {
      "bufferView": 2,
      "byteOffset": 2304,
      "componentType": 5126,
      "count": 192,
      "max": [
        1.0,
        1.0,
        1.0
      ],
      "min": [
        -1.0,
        -1.0,
        -1.0
      ],
      "type": "VEC3"
    },
    {
      "bufferView": 1,
      "componentType": 5126,
      "count": 192,
      "max": [
        0.875,
        1.0
      ],
      "min": [
        0.0,
        0.0
      ],
      "type": "VEC2"
    },
    {
      "bufferView": 0,
      "componentType": 5125,
      "count": 336,
      "type": "SCALAR"
    },
    {
      "bufferView": 2,
      "byteOffset": 4608,
      "componentType": 5126,
      "count": 402,
      "max": [
        1.721133828163147,
        0.8664542436599731,
        0.06474924087524414
      ],
      "min": [
        2.2649765014648438e-06,
        -0.8546773195266724,
        -0.33089226484298706
      ],
      "type": "VEC3"
    },
    {
      "bufferView": 2,
      "byteOffset": 9432,
      "componentType": 5126,
      "count": 402,
      "max": [
        1.0,
        1.0,
        1.0
      ],
      "min": [
        -1.0,
        -1.0,
        -1.0
      ],
      "type": "VEC3"
    },
    {
      "bufferView": 1,
      "byteOffset": 1536,
      "componentType": 5126,
      "count": 402,
      "max": [
        0.0,
        1.0
      ],
      "min": [
        0.0,
        1.0
      ],
      "type": "VEC2"
    },
    {
      "bufferView": 0,
      "byteOffset": 1344,
      "componentType": 5125,
      "count": 618,
      "type": "SCALAR"
    },
    {
      "bufferView": 2,
      "byteOffset": 14256,
      "componentType": 5126,
      "count": 192,
      "max": [
        1.053021788597107,
        0.6887378692626953,
        -0.06923380494117737
      ],
      "min": [
        0.16527831554412842,
        0.1827073097229004,
        -0.07821888476610184
      ],
      "type": "VEC3"
    },
    {
      "bufferView": 2,
      "byteOffset": 16560,
      "componentType": 5126,
      "count": 192,
      "max": [
        0.9853925108909607,
        0.9984250664710999,
        1.0
      ],
      "min": [
        -0.9853925108909607,
        -0.9984250664710999,
        -1.0
      ],
      "type": "VEC3"
    },
    {
      "bufferView": 1,
      "byteOffset": 4752,
      "componentType": 5126,
      "count": 192,
      "max": [
        0.9867014288902283,
        1.0298436880111694
      ],
      "min": [
        -0.001916359062306583,
        -0.00853729248046875
      ],
      "type": "VEC2"
    },
    {
      "bufferView": 0,
      "byteOffset": 3816,
      "componentType": 5125,
      "count": 372,
      "type": "SCALAR"
    },
    {
      "bufferView": 3,
      "componentType": 5126,
      "count": 87,
      "max": [
        3.625
      ],
      "min": [
        0.0416666679084301
      ],
      "type": "SCALAR"
    },
    {
      "bufferView": 5,
      "componentType": 5126,
      "count": 87,
      "max": [
        0.0,
        0.9321685433387756,
        -0.0,
        1.0
      ],
      "min": [
        0.0,
        1.7763565005870716e-14,
        -0.0,
        0.36202457547187805
      ],
      "type": "VEC4"
    },
    {
      "bufferView": 3,
      "byteOffset": 348,
      "componentType": 5126,
      "count": 87,
      "max": [
        3.625
      ],
      "min": [
        0.0416666679084301
      ],
      "type": "SCALAR"
    },
    {
      "bufferView": 4,
      "componentType": 5126,
      "count": 87,
      "max": [
        1.764596700668335,
        1.0,
        1.0000001192092896
      ],
      "min": [
        1.000000238418579,
        1.0,
        0.5667136311531067
      ],
      "type": "VEC3"
    }
  ],
  "animations": [
    {
      "channels": [
        {
          "sampler": 0,
          "target": {
            "node": 5,
            "path": "rotation"
          }
        },
        {
          "sampler": 1,
          "target": {
            "node": 5,
            "path": "scale"
          }
        }
      ],
      "name": "first aid kit - doorAction.001",
      "samplers": [
        {
          "input": 12,
          "interpolation": "LINEAR",
          "output": 13
        },
        {
          "input": 14,
          "interpolation": "LINEAR",
          "output": 15
        }
      ]
    }
  ],
  "asset": {
    "extras": {
      "author": "bytephunk (https://sketchfab.com/bytephunk)",
      "license": "SKETCHFAB Standard (https://sketchfab.com/licenses)",
      "source": "https://sketchfab.com/3d-models/first-aid-box-10f0dbf1f1b046f4b8b30dea420d1c3b",
      "title": "First Aid Box"
    },
    "generator": "Sketchfab-16.53.0",
    "version": "2.0"
  },
  "bufferViews": [
    {
      "buffer": 0,
      "byteLength": 5304,
      "name": "floatBufferViews",
      "target": 34963
    },
    {
      "buffer": 0,
      "byteLength": 6288,
      "byteOffset": 5304,
      "byteStride": 8,
      "name": "floatBufferViews",
      "target": 34962
    },
    {
      "buffer": 0,
      "byteLength": 18864,
      "byteOffset": 11592,
      "byteStride": 12,
      "name": "floatBufferViews",
      "target": 34962
    },
    {
      "buffer": 0,
      "byteLength": 696,
      "byteOffset": 30456,
      "name": "floatBufferViews"
    },
    {
      "buffer": 0,
      "byteLength": 1044,
      "byteOffset": 31152,
      "byteStride": 12,
      "name": "floatBufferViews"
    },
    {
      "buffer": 0,
      "byteLength": 1392,
      "byteOffset": 32196,
      "byteStride": 16,
      "name": "floatBufferViews"
    }
  ],
  "buffers": [
    {
      "byteLength": 33588,
      "uri": "scene.bin"
    }
  ],
  "images": [
    {
      "uri": "textures/red_cross_sign_baseColor.png"
    }
  ],
  "materials": [
    {
      "doubleSided": true,
      "name": "appliances",
      "pbrMetallicRoughness": {
        "baseColorFactor": [
          0.216275,
          0.249899,
          0.241089,
          1.0
        ],
        "metallicFactor": 0.0,
        "roughnessFactor": 0.5
      }
    },
    {
      "doubleSided": true,
      "name": "red_cross_sign",
      "pbrMetallicRoughness": {
        "baseColorTexture": {
          "index": 0
        },
        "metallicFactor": 0.0,
        "roughnessFactor": 0.5
      }
    }
  ],
  "meshes": [
    {
      "name": "Object_0",
      "primitives": [
        {
          "attributes": {
            "NORMAL": 1,
            "POSITION": 0,
            "TEXCOORD_0": 2
          },
          "indices": 3,
          "material": 0,
          "mode": 4
        }
      ]
    },
    {
      "name": "Object_1",
      "primitives": [
        {
          "attributes": {
            "NORMAL": 5,
            "POSITION": 4,
            "TEXCOORD_0": 6
          },
          "indices": 7,
          "material": 0,
          "mode": 4
        }
      ]
    },
    {
      "name": "Object_2",
      "primitives": [
        {
          "attributes": {
            "NORMAL": 9,
            "POSITION": 8,
            "TEXCOORD_0": 10
          },
          "indices": 11,
          "material": 1,
          "mode": 4
        }
      ]
    }
  ],
  "nodes": [
    {
      "children": [
        1
      ],
      "matrix": [
        1.0,
        0.0,
        0.0,
        0.0,
        0.0,
        2.220446049250313e-16,
        -1.0,
        0.0,
        0.0,
        1.0,
        2.220446049250313e-16,
        0.0,
        0.0,
        0.0,
        0.0,
        1.0
      ],
      "name": "Sketchfab_model"
    },
    {
      "children": [
        2
      ],
      "name": "root"
    },
    {
      "children": [
        3
      ],
      "matrix": [
        1.0,
        0.0,
        0.0,
        0.0,
        0.0,
        2.220446049250313e-16,
        1.0,
        0.0,
        0.0,
        -1.0,
        2.220446049250313e-16,
        0.0,
        0.0,
        0.0,
        0.0,
        1.0
      ],
      "name": "GLTF_SceneRootNode"
    },
    {
      "children": [
        4,
        5
      ],
      "matrix": [
        -0.19653166830539476,
        0.0,
        2.9675459770839968e-08,
        0.0,
        -0.0,
        0.3447808027267456,
        0.0,
        0.0,
        -1.6816971825217132e-08,
        -0.0,
        -0.11137375980615487,
        0.0,
        0.0,
        0.0,
        0.0,
        1.0
      ],
      "name": "first aid kit_1"
    },
    {
      "mesh": 0,
      "name": "Object_4"
    },
    {
      "children": [
        6,
        7
      ],
      "name": "first aid kit - door_0",
      "translation": [
        -0.860567569732666,
        -0.005887841805815697,
        0.0004043643129989505
      ]
    },
    {
      "mesh": 1,
      "name": "Object_6"
    },
    {
      "mesh": 2,
      "name": "Object_7"
    }
  ],
  "samplers": [
    {
      "magFilter": 9729,
      "minFilter": 9987,
      "wrapS": 10497,
      "wrapT": 10497
    }
  ],
  "scene": 0,
  "scenes": [
    {
      "name": "Sketchfab_Scene",
      "nodes": [
        0
      ]
    }
  ],
  "textures": [
    {
      "sampler": 0,
      "source": 0
    }
  ]
}
