{
  "accessors": [
    {
      "bufferView": 2,
      "componentType": 5126,
      "count": 7332,
      "max": [
        1.3762544393539429,
        1.6530811786651611,
        1.6600875854492188
      ],
      "min": [
        -1.3762544393539429,
        -2.0878915786743164,
        -2.0552380084991455
      ],
      "type": "VEC3"
    },
    {
      "bufferView": 2,
      "byteOffset": 87984,
      "componentType": 5126,
      "count": 7332,
      "max": [
        1.0,
        0.9999342560768127,
        0.9999194741249084
      ],
      "min": [
        -1.0,
        -0.9999342560768127,
        -0.9999195337295532
      ],
      "type": "VEC3"
    },
    {
      "bufferView": 3,
      "componentType": 5126,
      "count": 7332,
      "max": [
        1.0,
        0.9995798468589783,
        0.9703204035758972,
        1.0
      ],
      "min": [
        -1.0,
        -0.9700527191162109,
        -0.9999918937683105,
        1.0
      ],
      "type": "VEC4"
    },
    {
      "bufferView": 1,
      "componentType": 5126,
      "count": 7332,
      "max": [
        0.8426307439804077,
        0.8278505206108093
      ],
      "min": [
        0.0005672689876519144,
        0.0005672574043273926
      ],
      "type": "VEC2"
    },
    {
      "bufferView": 1,
      "byteOffset": 58656,
      "componentType": 5126,
      "count": 7332,
      "max": [
        0.8426307439804077,
        0.8278505206108093
      ],
      "min": [
        0.0005672689876519144,
        0.0005672574043273926
      ],
      "type": "VEC2"
    },
    {
      "bufferView": 0,
      "componentType": 5125,
      "count": 27834,
      "type": "SCALAR"
    },
    {
      "bufferView": 2,
      "byteOffset": 175968,
      "componentType": 5126,
      "count": 4484,
      "max": [
        1.3762544393539429,
        1.4712181091308594,
        1.478220820426941
      ],
      "min": [
        -1.3762544393539429,
        -1.565773606300354,
        -1.5607638359069824
      ],
      "type": "VEC3"
    },
    {
      "bufferView": 2,
      "byteOffset": 229776,
      "componentType": 5126,
      "count": 4484,
      "max": [
        1.0,
        0.9999340176582336,
        0.9999194145202637
      ],
      "min": [
        -1.0,
        -0.999934196472168,
        -0.9999194741249084
      ],
      "type": "VEC3"
    },
    {
      "bufferView": 1,
      "byteOffset": 117312,
      "componentType": 5126,
      "count": 4484,
      "max": [
        0.8263506889343262,
        0.9994326829910278
      ],
      "min": [
        0.0005672574043273926,
        0.0005672574043273926
      ],
      "type": "VEC2"
    },
    {
      "bufferView": 0,
      "byteOffset": 111336,
      "componentType": 5125,
      "count": 19386,
      "type": "SCALAR"
    },
    {
      "bufferView": 2,
      "byteOffset": 283584,
      "componentType": 5126,
      "count": 2793,
      "max": [
        1.7743505239486694,
        1.8539801836013794,
        1.8686572313308716
      ],
      "min": [
        -1.7743505239486694,
        -1.3580772876739502,
        -1.3615468740463257
      ],
      "type": "VEC3"
    },
    {
      "bufferView": 2,
      "byteOffset": 317100,
      "componentType": 5126,
      "count": 2793,
      "max": [
        1.0,
        0.9999340176582336,
        0.9999650716781616
      ],
      "min": [
        -1.0,
        -0.9998748302459717,
        -0.9999650716781616
      ],
      "type": "VEC3"
    },
    {
      "bufferView": 3,
      "byteOffset": 117312,
      "componentType": 5126,
      "count": 2793,
      "max": [
        0.9999958872795105,
        0.9991176128387451,
        0.9249747395515442,
        1.0
      ],
      "min": [
        -0.9998108148574829,
        -0.9998165369033813,
        -0.9997645616531372,
        1.0
      ],
      "type": "VEC4"
    },
    {
      "bufferView": 1,
      "byteOffset": 153184,
      "componentType": 5126,
      "count": 2793,
      "max": [
        0.912401020526886,
        0.9997482895851135
      ],
      "min": [
        0.0002516625972930342,
        0.0002516625972930342
      ],
      "type": "VEC2"
    },
    {
      "bufferView": 1,
      "byteOffset": 175528,
      "componentType": 5126,
      "count": 2793,
      "max": [
        0.912401020526886,
        0.9997482895851135
      ],
      "min": [
        0.0002516625972930342,
        0.0002516625972930342
      ],
      "type": "VEC2"
    },
    {
      "bufferView": 0,
      "byteOffset": 188880,
      "componentType": 5125,
      "count": 13044,
      "type": "SCALAR"
    },
    {
      "bufferView": 2,
      "byteOffset": 350616,
      "componentType": 5126,
      "count": 3575,
      "max": [
        1.7743505239486694,
        1.5055581331253052,
        1.5295484066009521
      ],
      "min": [
        -1.7743505239486694,
        -1.8683913946151733,
        -1.8830686807632446
      ],
      "type": "VEC3"
    },
    {
      "bufferView": 2,
      "byteOffset": 393516,
      "componentType": 5126,
      "count": 3575,
      "max": [
        1.0,
        0.9999740719795227,
        0.9999650120735168
      ],
      "min": [
        -1.0,
        -0.9999741911888123,
        -0.9999650120735168
      ],
      "type": "VEC3"
    },
    {
      "bufferView": 1,
      "byteOffset": 197872,
      "componentType": 5126,
      "count": 3575,
      "max": [
        0.8615410327911377,
        0.999103307723999
      ],
      "min": [
        0.0661558136343956,
        0.0002516625972930342
      ],
      "type": "VEC2"
    },
    {
      "bufferView": 0,
      "byteOffset": 241056,
      "componentType": 5125,
      "count": 19584,
      "type": "SCALAR"
    },
    {
      "bufferView": 2,
      "byteOffset": 436416,
      "componentType": 5126,
      "count": 44069,
      "max": [
        1.0,
        1.0,
        0.36863473057746887
      ],
      "min": [
        -2.531238317489624,
        -1.2674047946929932,
        -1.9818774461746216
      ],
      "type": "VEC3"
    },
    {
      "bufferView": 2,
      "byteOffset": 965244,
      "componentType": 5126,
      "count": 44069,
      "max": [
        0.9999983906745911,
        0.9999983906745911,
        0.9999939799308777
      ],
      "min": [
        -0.9999983906745911,
        -0.9999983906745911,
        -0.9999856948852539
      ],
      "type": "VEC3"
    },
    {
      "bufferView": 3,
      "byteOffset": 162000,
      "componentType": 5126,
      "count": 44069,
      "max": [
        0.9999992847442627,
        0.9999992847442627,
        0.9999984502792358,
        1.0
      ],
      "min": [
        -0.9999993443489075,
        -0.9999994039535522,
        -0.9999995827674866,
        -1.0
      ],
      "type": "VEC4"
    },
    {
      "bufferView": 1,
      "byteOffset": 226472,
      "componentType": 5126,
      "count": 44069,
      "max": [
        0.5192546844482422,
        1.0034048557281494
      ],
      "min": [
        0.00041735259583219886,
        -0.002196175279095769
      ],
      "type": "VEC2"
    },
    {
      "bufferView": 1,
      "byteOffset": 579024,
      "componentType": 5126,
      "count": 44069,
      "max": [
        0.5192546844482422,
        1.0034048557281494
      ],
      "min": [
        0.00041735259583219886,
        -0.002196175279095769
      ],
      "type": "VEC2"
    },
    {
      "bufferView": 0,
      "byteOffset": 319392,
      "componentType": 5125,
      "count": 172800,
      "type": "SCALAR"
    },
    {
      "bufferView": 2,
      "byteOffset": 1494072,
      "componentType": 5126,
      "count": 11781,
      "max": [
        0.9473010301589966,
        0.9473009705543518,
        0.2784980535507202
      ],
      "min": [
        -2.3688583374023438,
        -1.1646225452423096,
        -2.035465717315674
      ],
      "type": "VEC3"
    },
    {
      "bufferView": 2,
      "byteOffset": 1635444,
      "componentType": 5126,
      "count": 11781,
      "max": [
        0.9999949932098389,
        0.9999950528144836,
        0.9995158910751343
      ],
      "min": [
        -0.9999949932098389,
        -0.9999950528144836,
        -0.9999939799308777
      ],
      "type": "VEC3"
    },
    {
      "bufferView": 1,
      "byteOffset": 931576,
      "componentType": 5126,
      "count": 11781,
      "max": [
        0.3768622875213623,
        0.9436251521110535
      ],
      "min": [
        0.1095280721783638,
        -0.0020502142142504454
      ],
      "type": "VEC2"
    },
    {
      "bufferView": 0,
      "byteOffset": 1010592,
      "componentType": 5125,
      "count": 37632,
      "type": "SCALAR"
    },
    {
      "bufferView": 2,
      "byteOffset": 1776816,
      "componentType": 5126,
      "count": 128,
      "max": [
        0.6361430883407593,
        0.6364209651947021,
        0.0228680819272995
      ],
      "min": [
        -2.059756278991699,
        -0.8668534755706787,
        -1.6214725971221924
      ],
      "type": "VEC3"
    },
    {
      "bufferView": 2,
      "byteOffset": 1778352,
      "componentType": 5126,
      "count": 128,
      "max": [
        0.8803713917732239,
        0.11796975880861282,
        -0.45937955379486084
      ],
      "min": [
        -2.866945791879516e-08,
        -2.2562860024777365e-08,
        -1.0
      ],
      "type": "VEC3"
    },
    {
      "bufferView": 1,
      "byteOffset": 1025824,
      "componentType": 5126,
      "count": 128,
      "max": [
        -0.29364216327667236,
        0.7747171521186829
      ],
      "min": [
        -1.0680267810821533,
        0.0003324933350086212
      ],
      "type": "VEC2"
    },
    {
      "bufferView": 0,
      "byteOffset": 1161120,
      "componentType": 5125,
      "count": 372,
      "type": "SCALAR"
    },
    {
      "bufferView": 2,
      "byteOffset": 1779888,
      "componentType": 5126,
      "count": 11319,
      "max": [
        1.6907501220703125,
        30.480985641479492,
        1.3631798028945923
      ],
      "min": [
        -1.74092698097229,
        25.88060188293457,
        -3.7597031593322754
      ],
      "type": "VEC3"
    },
    {
      "bufferView": 2,
      "byteOffset": 1915716,
      "componentType": 5126,
      "count": 11319,
      "max": [
        0.9999274015426636,
        0.9999239444732666,
        0.9999714493751526
      ],
      "min": [
        -1.0,
        -0.9999685287475586,
        -0.9999545812606812
      ],
      "type": "VEC3"
    },
    {
      "bufferView": 3,
      "byteOffset": 867104,
      "componentType": 5126,
      "count": 11319,
      "max": [
        0.9999999403953552,
        0.9830502271652222,
        0.9999786019325256,
        1.0
      ],
      "min": [
        -0.9999988079071045,
        -0.9999433159828186,
        -0.9777646064758301,
        -1.0
      ],
      "type": "VEC4"
    },
    {
      "bufferView": 1,
      "byteOffset": 1026848,
      "componentType": 5126,
      "count": 11319,
      "max": [
        0.6374779939651489,
        1.0
      ],
      "min": [
        0.0,
        0.0
      ],
      "type": "VEC2"
    },
    {
      "bufferView": 1,
      "byteOffset": 1117400,
      "componentType": 5126,
      "count": 11319,
      "max": [
        0.6374779939651489,
        1.0
      ],
      "min": [
        0.0,
        0.0
      ],
      "type": "VEC2"
    },
    {
      "bufferView": 1,
      "byteOffset": 1207952,
      "componentType": 5126,
      "count": 11319,
      "max": [
        0.6374779939651489,
        1.0
      ],
      "min": [
        0.0,
        0.0
      ],
      "type": "VEC2"
    },
    {
      "bufferView": 0,
      "byteOffset": 1162608,
      "componentType": 5125,
      "count": 62670,
      "type": "SCALAR"
    }
  ],
  "asset": {
    "extras": {
      "author": "Sket_h (https://sketchfab.com/skettch)",
      "license": "CC-BY-SA-4.0 (http://creativecommons.org/licenses/by-sa/4.0/)",
      "source": "https://sketchfab.com/3d-models/hazmat-mask-de516e7330e1491fac4144e3d2f458f1",
      "title": "Hazmat Mask"
    },
    "generator": "Sketchfab-15.8.0",
    "version": "2.0"
  },
  "bufferViews": [
    {
      "buffer": 0,
      "byteLength": 1413288,
      "name": "floatBufferViews",
      "target": 34963
    },
    {
      "buffer": 0,
      "byteLength": 1298504,
      "byteOffset": 1413288,
      "byteStride": 8,
      "name": "floatBufferViews",
      "target": 34962
    },
    {
      "buffer": 0,
      "byteLength": 2051544,
      "byteOffset": 2711792,
      "byteStride": 12,
      "name": "floatBufferViews",
      "target": 34962
    },
    {
      "buffer": 0,
      "byteLength": 1048208,
      "byteOffset": 4763336,
      "byteStride": 16,
      "name": "floatBufferViews",
      "target": 34962
    }
  ],
  "buffers": [
    {
      "byteLength": 5811544,
      "uri": "scene.bin"
    }
  ],
  "extensionsUsed": [
    "KHR_materials_specular",
    "KHR_materials_clearcoat"
  ],
  "images": [
    {
      "uri": "textures/Steel_se2abbvc_baseColor.jpeg"
    },
    {
      "uri": "textures/Steel_se2abbvc_metallicRoughness.png"
    },
    {
      "uri": "textures/Steel_se2abbvc_normal.jpeg"
    },
    {
      "uri": "textures/Grunge_tedxadjc_metallicRoughness.png"
    },
    {
      "uri": "textures/Fingerprints_sl4fadnc_baseColor.png"
    },
    {
      "uri": "textures/Material.004_baseColor.png"
    },
    {
      "uri": "textures/Material.004_metallicRoughness.png"
    },
    {
      "uri": "textures/Material.004_normal.png"
    }
  ],
  "materials": [
    {
      "doubleSided": true,
      "name": "Steel_se2abbvc",
      "normalTexture": {
        "index": 2
      },
      "pbrMetallicRoughness": {
        "baseColorTexture": {
          "index": 0
        },
        "metallicRoughnessTexture": {
          "index": 1
        }
      }
    },
    {
      "doubleSided": true,
      "extensions": {
        "KHR_materials_specular": {
          "specularColorFactor": [
            1.0,
            1.0,
            1.0
          ],
          "specularFactor": 0.4516428627887322
        }
      },
      "name": "Grunge_tedxadjc",
      "pbrMetallicRoughness": {
        "baseColorFactor": [
          0.08756462137077992,
          0.08756462137077992,
          0.08756462137077992,
          1.0
        ],
        "metallicRoughnessTexture": {
          "index": 3
        }
      }
    },
    {
      "alphaCutoff": 0.6583687503420098,
      "alphaMode": "MASK",
      "doubleSided": true,
      "extensions": {
        "KHR_materials_clearcoat": {
          "clearcoatFactor": 1.0,
          "clearcoatRoughnessFactor": 0.04
        }
      },
      "name": "Fingerprints_sl4fadnc",
      "pbrMetallicRoughness": {
        "baseColorFactor": [
          0.8,
          0.8,
          0.8,
          1.0
        ],
        "baseColorTexture": {
          "index": 4
        },
        "metallicFactor": 0.0,
        "metallicRoughnessTexture": {
          "index": 3
        }
      }
    },
    {
      "doubleSided": true,
      "name": "Material.004",
      "normalTexture": {
        "index": 7
      },
      "occlusionTexture": {
        "index": 6
      },
      "pbrMetallicRoughness": {
        "baseColorTexture": {
          "index": 5
        },
        "metallicRoughnessTexture": {
          "index": 6
        }
      }
    }
  ],
  "meshes": [
    {
      "name": "Cylinder_Steel_se2abbvc_0",
      "primitives": [
        {
          "attributes": {
            "NORMAL": 1,
            "POSITION": 0,
            "TANGENT": 2,
            "TEXCOORD_0": 3,
            "TEXCOORD_1": 4
          },
          "indices": 5,
          "material": 0,
          "mode": 4
        }
      ]
    },
    {
      "name": "Cylinder_Grunge_tedxadjc_0",
      "primitives": [
        {
          "attributes": {
            "NORMAL": 7,
            "POSITION": 6,
            "TEXCOORD_0": 8
          },
          "indices": 9,
          "material": 1,
          "mode": 4
        }
      ]
    },
    {
      "name": "Cylinder.001_Steel_se2abbvc_0",
      "primitives": [
        {
          "attributes": {
            "NORMAL": 11,
            "POSITION": 10,
            "TANGENT": 12,
            "TEXCOORD_0": 13,
            "TEXCOORD_1": 14
          },
          "indices": 15,
          "material": 0,
          "mode": 4
        }
      ]
    },
    {
      "name": "Cylinder.001_Grunge_tedxadjc_0",
      "primitives": [
        {
          "attributes": {
            "NORMAL": 17,
            "POSITION": 16,
            "TEXCOORD_0": 18
          },
          "indices": 19,
          "material": 1,
          "mode": 4
        }
      ]
    },
    {
      "name": "Cylinder.002_Steel_se2abbvc_0",
      "primitives": [
        {
          "attributes": {
            "NORMAL": 21,
            "POSITION": 20,
            "TANGENT": 22,
            "TEXCOORD_0": 23,
            "TEXCOORD_1": 24
          },
          "indices": 25,
          "material": 0,
          "mode": 4
        }
      ]
    },
    {
      "name": "Cylinder.002_Grunge_tedxadjc_0",
      "primitives": [
        {
          "attributes": {
            "NORMAL": 27,
            "POSITION": 26,
            "TEXCOORD_0": 28
          },
          "indices": 29,
          "material": 1,
          "mode": 4
        }
      ]
    },
    {
      "name": "Cylinder.002_Fingerprints_sl4fadnc_0",
      "primitives": [
        {
          "attributes": {
            "NORMAL": 31,
            "POSITION": 30,
            "TEXCOORD_0": 32
          },
          "indices": 33,
          "material": 2,
          "mode": 4
        }
      ]
    },
    {
      "name": "Quad_Sphere_Material.004_0",
      "primitives": [
        {
          "attributes": {
            "NORMAL": 35,
            "POSITION": 34,
            "TANGENT": 36,
            "TEXCOORD_0": 37,
            "TEXCOORD_1": 38,
            "TEXCOORD_2": 39
          },
          "indices": 40,
          "material": 3,
          "mode": 4
        }
      ]
    }
  ],
  "nodes": [
    {
      "children": [
        1
      ],
      "matrix": [
        1.0,
        0.0,
        0.0,
        0.0,
        0.0,
        2.220446049250313e-16,
        -1.0,
        0.0,
        0.0,
        1.0,
        2.220446049250313e-16,
        0.0,
        0.0,
        0.0,
        0.0,
        1.0
      ],
      "name": "Sketchfab_model"
    },
    {
      "children": [
        2
      ],
      "matrix": [
        0.009999999776482582,
        0.0,
        0.0,
        0.0,
        0.0,
        0.0,
        0.009999999776482582,
        0.0,
        0.0,
        -0.009999999776482582,
        0.0,
        0.0,
        0.0,
        0.0,
        0.0,
        1.0
      ],
      "name": "f0229ae47bb14ed897839335227100aa.fbx"
    },
    {
      "children": [
        3,
        6,
        9,
        13
      ],
      "name": "RootNode"
    },
    {
      "children": [
        4,
        5
      ],
      "matrix": [
        69.6039047241211,
        0.0,
        0.0,
        0.0,
        -0.0,
        -1.1339915445978113e-05,
        -69.60390472412017,
        0.0,
        0.0,
        69.60390472412017,
        -1.1339915445978113e-05,
        0.0,
        -2.4320688247680664,
        2649.663330078125,
        115.45122528076172,
        1.0
      ],
      "name": "Cylinder"
    },
    {
      "mesh": 0,
      "name": "Cylinder_Steel_se2abbvc_0"
    },
    {
      "mesh": 1,
      "name": "Cylinder_Grunge_tedxadjc_0"
    },
    {
      "children": [
        7,
        8
      ],
      "matrix": [
        69.6039047241211,
        0.0,
        0.0,
        0.0,
        -0.0,
        -1.1339915445978113e-05,
        -69.60390472412017,
        0.0,
        0.0,
        69.60390472412017,
        -1.1339915445978113e-05,
        0.0,
        -2.4320688247680664,
        2503.633544921875,
        265.0574645996094,
        1.0
      ],
      "name": "Cylinder.001"
    },
    {
      "mesh": 2,
      "name": "Cylinder.001_Steel_se2abbvc_0"
    },
    {
      "mesh": 3,
      "name": "Cylinder.001_Grunge_tedxadjc_0"
    },
    {
      "children": [
        10,
        11,
        12
      ],
      "matrix": [
        58.93025038635241,
        -19.7483896804871,
        -31.335783209381038,
        0.0,
        7.8966521956141165,
        64.23022625794654,
        -25.6285870035596,
        0.0,
        36.1880239132931,
        18.143396881136457,
        56.6210975677828,
        0.0,
        71.4384536743164,
        2864.326171875,
        18.109333038330078,
        1.0
      ],
      "name": "Cylinder.002"
    },
    {
      "mesh": 4,
      "name": "Cylinder.002_Steel_se2abbvc_0"
    },
    {
      "mesh": 5,
      "name": "Cylinder.002_Grunge_tedxadjc_0"
    },
    {
      "mesh": 6,
      "name": "Cylinder.002_Fingerprints_sl4fadnc_0"
    },
    {
      "children": [
        14
      ],
      "matrix": [
        100.0017318725586,
        0.0,
        0.0,
        0.0,
        0.0,
        100.00173187255726,
        1.6292349231047983e-05,
        0.0,
        0.0,
        -1.6292349231047983e-05,
        100.00173187255726,
        0.0,
        0.0,
        0.0,
        0.0,
        1.0
      ],
      "name": "Quad_Sphere"
    },
    {
      "mesh": 7,
      "name": "Quad_Sphere_Material.004_0"
    }
  ],
  "samplers": [
    {
      "magFilter": 9729,
      "minFilter": 9987,
      "wrapS": 10497,
      "wrapT": 10497
    }
  ],
  "scene": 0,
  "scenes": [
    {
      "name": "Sketchfab_Scene",
      "nodes": [
        0
      ]
    }
  ],
  "textures": [
    {
      "sampler": 0,
      "source": 0
    },
    {
      "sampler": 0,
      "source": 1
    },
    {
      "sampler": 0,
      "source": 2
    },
    {
      "sampler": 0,
      "source": 3
    },
    {
      "sampler": 0,
      "source": 4
    },
    {
      "sampler": 0,
      "source": 5
    },
    {
      "sampler": 0,
      "source": 6
    },
    {
      "sampler": 0,
      "source": 7
    }
  ]
}
