{
  "accessors": [
    {
      "bufferView": 2,
      "componentType": 5126,
      "count": 1920,
      "max": [
        0.17689096927642822,
        0.2920999825000763,
        0.7049871683120728
      ],
      "min": [
        -0.17689096927642822,
        -0.2920999825000763,
        0.006487055215984583
      ],
      "type": "VEC3"
    },
    {
      "bufferView": 2,
      "byteOffset": 23040,
      "componentType": 5126,
      "count": 1920,
      "max": [
        1.0,
        1.0,
        1.0
      ],
      "min": [
        -1.0,
        -1.0,
        -1.0
      ],
      "type": "VEC3"
    },
    {
      "bufferView": 1,
      "componentType": 5126,
      "count": 1920,
      "max": [
        1.0000001192092896,
        1.0000001192092896
      ],
      "min": [
        0.0,
        0.0
      ],
      "type": "VEC2"
    },
    {
      "bufferView": 0,
      "componentType": 5125,
      "count": 2820,
      "type": "SCALAR"
    },
    {
      "bufferView": 2,
      "byteOffset": 46080,
      "componentType": 5126,
      "count": 192,
      "max": [
        0.1624595820903778,
        0.279333233833313,
        0.006487024948000908
      ],
      "min": [
        -0.1624595820903778,
        -0.279333233833313,
        0.00013702487922273576
      ],
      "type": "VEC3"
    },
    {
      "bufferView": 2,
      "byteOffset": 48384,
      "componentType": 5126,
      "count": 192,
      "max": [
        0.90194171667099,
        0.901942789554596,
        1.0
      ],
      "min": [
        -0.9019418954849243,
        -0.901942789554596,
        -1.0
      ],
      "type": "VEC3"
    },
    {
      "bufferView": 1,
      "byteOffset": 15360,
      "componentType": 5126,
      "count": 192,
      "max": [
        1.0,
        1.0
      ],
      "min": [
        0.0,
        0.01000000536441803
      ],
      "type": "VEC2"
    },
    {
      "bufferView": 0,
      "byteOffset": 11280,
      "componentType": 5125,
      "count": 336,
      "type": "SCALAR"
    },
    {
      "bufferView": 2,
      "byteOffset": 50688,
      "componentType": 5126,
      "count": 1938,
      "max": [
        0.16192500293254852,
        0.28714707493782043,
        0.690170407295227
      ],
      "min": [
        -0.16192500293254852,
        -0.2906944453716278,
        0.5885703563690186
      ],
      "type": "VEC3"
    },
    {
      "bufferView": 2,
      "byteOffset": 73944,
      "componentType": 5126,
      "count": 1938,
      "max": [
        1.0,
        1.0,
        1.0
      ],
      "min": [
        -1.0,
        -1.0,
        -1.0
      ],
      "type": "VEC3"
    },
    {
      "bufferView": 1,
      "byteOffset": 16896,
      "componentType": 5126,
      "count": 1938,
      "max": [
        0.875,
        1.0
      ],
      "min": [
        0.125,
        0.0
      ],
      "type": "VEC2"
    },
    {
      "bufferView": 0,
      "byteOffset": 12624,
      "componentType": 5125,
      "count": 3636,
      "type": "SCALAR"
    },
    {
      "bufferView": 2,
      "byteOffset": 97200,
      "componentType": 5126,
      "count": 1938,
      "max": [
        0.16192500293254852,
        0.28714707493782043,
        0.5885704755783081
      ],
      "min": [
        -0.16192500293254852,
        -0.2906944453716278,
        0.48697036504745483
      ],
      "type": "VEC3"
    },
    {
      "bufferView": 2,
      "byteOffset": 120456,
      "componentType": 5126,
      "count": 1938,
      "max": [
        1.0,
        1.0,
        1.0
      ],
      "min": [
        -1.0,
        -1.0,
        -1.0
      ],
      "type": "VEC3"
    },
    {
      "bufferView": 1,
      "byteOffset": 32400,
      "componentType": 5126,
      "count": 1938,
      "max": [
        0.875,
        1.0
      ],
      "min": [
        0.125,
        0.0
      ],
      "type": "VEC2"
    },
    {
      "bufferView": 0,
      "byteOffset": 27168,
      "componentType": 5125,
      "count": 3636,
      "type": "SCALAR"
    },
    {
      "bufferView": 2,
      "byteOffset": 143712,
      "componentType": 5126,
      "count": 1937,
      "max": [
        0.16192500293254852,
        0.28714707493782043,
        0.4858458638191223
      ],
      "min": [
        -0.16192500293254852,
        -0.2906944453716278,
        0.3321155905723572
      ],
      "type": "VEC3"
    },
    {
      "bufferView": 2,
      "byteOffset": 166956,
      "componentType": 5126,
      "count": 1937,
      "max": [
        1.0,
        1.0,
        1.0
      ],
      "min": [
        -1.0,
        -1.0,
        -1.0
      ],
      "type": "VEC3"
    },
    {
      "bufferView": 1,
      "byteOffset": 47904,
      "componentType": 5126,
      "count": 1937,
      "max": [
        0.875,
        1.0
      ],
      "min": [
        0.125,
        0.0
      ],
      "type": "VEC2"
    },
    {
      "bufferView": 0,
      "byteOffset": 41712,
      "componentType": 5125,
      "count": 3636,
      "type": "SCALAR"
    },
    {
      "bufferView": 2,
      "byteOffset": 190200,
      "componentType": 5126,
      "count": 1937,
      "max": [
        0.16192500293254852,
        0.28714707493782043,
        0.3308456242084503
      ],
      "min": [
        -0.16192500293254852,
        -0.2906944453716278,
        0.17711538076400757
      ],
      "type": "VEC3"
    },
    {
      "bufferView": 2,
      "byteOffset": 213444,
      "componentType": 5126,
      "count": 1937,
      "max": [
        1.0,
        1.0,
        1.0
      ],
      "min": [
        -1.0,
        -1.0,
        -1.0
      ],
      "type": "VEC3"
    },
    {
      "bufferView": 1,
      "byteOffset": 63400,
      "componentType": 5126,
      "count": 1937,
      "max": [
        0.875,
        1.0
      ],
      "min": [
        0.125,
        0.0
      ],
      "type": "VEC2"
    },
    {
      "bufferView": 0,
      "byteOffset": 56256,
      "componentType": 5125,
      "count": 3636,
      "type": "SCALAR"
    },
    {
      "bufferView": 2,
      "byteOffset": 236688,
      "componentType": 5126,
      "count": 1937,
      "max": [
        0.16192500293254852,
        0.28714707493782043,
        0.17584533989429474
      ],
      "min": [
        -0.16192500293254852,
        -0.2906944453716278,
        0.02211504615843296
      ],
      "type": "VEC3"
    },
    {
      "bufferView": 2,
      "byteOffset": 259932,
      "componentType": 5126,
      "count": 1937,
      "max": [
        1.0,
        1.0,
        1.0
      ],
      "min": [
        -1.0,
        -1.0,
        -1.0
      ],
      "type": "VEC3"
    },
    {
      "bufferView": 1,
      "byteOffset": 78896,
      "componentType": 5126,
      "count": 1937,
      "max": [
        0.875,
        1.0
      ],
      "min": [
        0.125,
        0.0
      ],
      "type": "VEC2"
    },
    {
      "bufferView": 0,
      "byteOffset": 70800,
      "componentType": 5125,
      "count": 3636,
      "type": "SCALAR"
    },
    {
      "bufferView": 3,
      "componentType": 5126,
      "count": 89,
      "max": [
        2.4583332538604736
      ],
      "min": [
        0.0
      ],
      "type": "SCALAR"
    },
    {
      "bufferView": 4,
      "componentType": 5126,
      "count": 89,
      "max": [
        0.0,
        0.0,
        1.3234889800848443e-23
      ],
      "min": [
        0.0,
        -0.38541197776794434,
        -1.0339757656912846e-25
      ],
      "type": "VEC3"
    },
    {
      "bufferView": 3,
      "byteOffset": 356,
      "componentType": 5126,
      "count": 89,
      "max": [
        2.4583332538604736
      ],
      "min": [
        0.0
      ],
      "type": "SCALAR"
    },
    {
      "bufferView": 4,
      "byteOffset": 1068,
      "componentType": 5126,
      "count": 89,
      "max": [
        0.0,
        0.0,
        1.3234889800848443e-23
      ],
      "min": [
        0.0,
        -0.38541197776794434,
        -1.0339757656912846e-25
      ],
      "type": "VEC3"
    },
    {
      "bufferView": 3,
      "byteOffset": 712,
      "componentType": 5126,
      "count": 89,
      "max": [
        2.4583332538604736
      ],
      "min": [
        0.0
      ],
      "type": "SCALAR"
    },
    {
      "bufferView": 4,
      "byteOffset": 2136,
      "componentType": 5126,
      "count": 89,
      "max": [
        0.0,
        0.0,
        1.3234889800848443e-23
      ],
      "min": [
        0.0,
        -0.38541197776794434,
        -1.0339757656912846e-25
      ],
      "type": "VEC3"
    },
    {
      "bufferView": 3,
      "byteOffset": 1068,
      "componentType": 5126,
      "count": 89,
      "max": [
        2.4583332538604736
      ],
      "min": [
        0.0
      ],
      "type": "SCALAR"
    },
    {
      "bufferView": 4,
      "byteOffset": 3204,
      "componentType": 5126,
      "count": 89,
      "max": [
        0.0,
        0.0,
        1.3234889800848443e-23
      ],
      "min": [
        0.0,
        -0.38541197776794434,
        -1.0339757656912846e-25
      ],
      "type": "VEC3"
    },
    {
      "bufferView": 3,
      "byteOffset": 1424,
      "componentType": 5126,
      "count": 89,
      "max": [
        2.4583332538604736
      ],
      "min": [
        0.0
      ],
      "type": "SCALAR"
    },
    {
      "bufferView": 4,
      "byteOffset": 4272,
      "componentType": 5126,
      "count": 89,
      "max": [
        0.0,
        0.0,
        1.3234889800848443e-23
      ],
      "min": [
        0.0,
        -0.38541197776794434,
        -1.0339757656912846e-25
      ],
      "type": "VEC3"
    }
  ],
  "animations": [
    {
      "channels": [
        {
          "sampler": 0,
          "target": {
            "node": 7,
            "path": "translation"
          }
        }
      ],
      "name": "DRAWER_01.001Action",
      "samplers": [
        {
          "input": 28,
          "interpolation": "LINEAR",
          "output": 29
        }
      ]
    },
    {
      "channels": [
        {
          "sampler": 0,
          "target": {
            "node": 9,
            "path": "translation"
          }
        }
      ],
      "name": "DRAWER_02.001Action",
      "samplers": [
        {
          "input": 30,
          "interpolation": "LINEAR",
          "output": 31
        }
      ]
    },
    {
      "channels": [
        {
          "sampler": 0,
          "target": {
            "node": 11,
            "path": "translation"
          }
        }
      ],
      "name": "DRAWER_03.001Action",
      "samplers": [
        {
          "input": 32,
          "interpolation": "LINEAR",
          "output": 33
        }
      ]
    },
    {
      "channels": [
        {
          "sampler": 0,
          "target": {
            "node": 13,
            "path": "translation"
          }
        }
      ],
      "name": "DRAWER_04.001Action",
      "samplers": [
        {
          "input": 34,
          "interpolation": "LINEAR",
          "output": 35
        }
      ]
    },
    {
      "channels": [
        {
          "sampler": 0,
          "target": {
            "node": 15,
            "path": "translation"
          }
        }
      ],
      "name": "DRAWER_05.001Action",
      "samplers": [
        {
          "input": 36,
          "interpolation": "LINEAR",
          "output": 37
        }
      ]
    }
  ],
  "asset": {
    "extras": {
      "author": "happydumplingx (https://sketchfab.com/travislikes3d)",
      "license": "CC-BY-NC-SA-4.0 (http://creativecommons.org/licenses/by-nc-sa/4.0/)",
      "source": "https://sketchfab.com/3d-models/ikea-alex-drawer-23x14x27-58a392b69b7b42a095d93e5615484c4e",
      "title": "IKEA ALEX Drawer 23x14x27"
    },
    "generator": "Sketchfab-17.8.0",
    "version": "2.0"
  },
  "bufferViews": [
    {
      "buffer": 0,
      "byteLength": 85344,
      "name": "floatBufferViews",
      "target": 34963
    },
    {
      "buffer": 0,
      "byteLength": 94392,
      "byteOffset": 85344,
      "byteStride": 8,
      "name": "floatBufferViews",
      "target": 34962
    },
    {
      "buffer": 0,
      "byteLength": 283176,
      "byteOffset": 179736,
      "byteStride": 12,
      "name": "floatBufferViews",
      "target": 34962
    },
    {
      "buffer": 0,
      "byteLength": 1780,
      "byteOffset": 462912,
      "name": "floatBufferViews"
    },
    {
      "buffer": 0,
      "byteLength": 5340,
      "byteOffset": 464692,
      "byteStride": 12,
      "name": "floatBufferViews"
    }
  ],
  "buffers": [
    {
      "byteLength": 470032,
      "uri": "scene.bin"
    }
  ],
  "materials": [
    {
      "doubleSided": true,
      "name": "WHITE_PLASTIC",
      "pbrMetallicRoughness": {
        "metallicFactor": 0.0,
        "roughnessFactor": 0.8775255128608411
      }
    },
    {
      "doubleSided": true,
      "name": "BLACK_PLASTIC",
      "pbrMetallicRoughness": {
        "baseColorFactor": [
          0.0,
          0.0,
          0.0,
          1.0
        ],
        "metallicFactor": 0.0,
        "roughnessFactor": 0.5751929884172997
      }
    }
  ],
  "meshes": [
    {
      "name": "IKEA_ALEX_DRAWER_23x14x27_WHITE_PLASTIC_0",
      "primitives": [
        {
          "attributes": {
            "NORMAL": 1,
            "POSITION": 0,
            "TEXCOORD_0": 2
          },
          "indices": 3,
          "material": 0,
          "mode": 4
        }
      ]
    },
    {
      "name": "IKEA_ALEX_DRAWER_23x14x27_BLACK_PLASTIC_0",
      "primitives": [
        {
          "attributes": {
            "NORMAL": 5,
            "POSITION": 4,
            "TEXCOORD_0": 6
          },
          "indices": 7,
          "material": 1,
          "mode": 4
        }
      ]
    },
    {
      "name": "DRAWER_01.001_WHITE_PLASTIC_0",
      "primitives": [
        {
          "attributes": {
            "NORMAL": 9,
            "POSITION": 8,
            "TEXCOORD_0": 10
          },
          "indices": 11,
          "material": 0,
          "mode": 4
        }
      ]
    },
    {
      "name": "DRAWER_02.001_WHITE_PLASTIC_0",
      "primitives": [
        {
          "attributes": {
            "NORMAL": 13,
            "POSITION": 12,
            "TEXCOORD_0": 14
          },
          "indices": 15,
          "material": 0,
          "mode": 4
        }
      ]
    },
    {
      "name": "DRAWER_03.001_WHITE_PLASTIC_0",
      "primitives": [
        {
          "attributes": {
            "NORMAL": 17,
            "POSITION": 16,
            "TEXCOORD_0": 18
          },
          "indices": 19,
          "material": 0,
          "mode": 4
        }
      ]
    },
    {
      "name": "DRAWER_04.001_WHITE_PLASTIC_0",
      "primitives": [
        {
          "attributes": {
            "NORMAL": 21,
            "POSITION": 20,
            "TEXCOORD_0": 22
          },
          "indices": 23,
          "material": 0,
          "mode": 4
        }
      ]
    },
    {
      "name": "DRAWER_05.001_WHITE_PLASTIC_0",
      "primitives": [
        {
          "attributes": {
            "NORMAL": 25,
            "POSITION": 24,
            "TEXCOORD_0": 26
          },
          "indices": 27,
          "material": 0,
          "mode": 4
        }
      ]
    }
  ],
  "nodes": [
    {
      "children": [
        1
      ],
      "matrix": [
        1.1002455949783325,
        0.0,
        0.0,
        0.0,
        0.0,
        2.4430359845746985e-16,
        -1.1002455949783325,
        0.0,
        0.0,
        1.1002455949783325,
        2.4430359845746985e-16,
        0.0,
        0.0,
        0.0,
        0.0,
        1.0
      ],
      "name": "Sketchfab_model"
    },
    {
      "children": [
        2
      ],
      "matrix": [
        0.009999999776482582,
        0.0,
        0.0,
        0.0,
        0.0,
        0.0,
        0.009999999776482582,
        0.0,
        0.0,
        -0.009999999776482582,
        0.0,
        0.0,
        0.0,
        0.0,
        0.0,
        1.0
      ],
      "name": "62037e7769d74e698e37967afea1c242.fbx"
    },
    {
      "children": [
        3
      ],
      "name": "Object_2"
    },
    {
      "children": [
        4
      ],
      "name": "RootNode"
    },
    {
      "children": [
        5,
        6,
        7,
        9,
        11,
        13,
        15
      ],
      "name": "IKEA_ALEX_DRAWER_23x14x27",
      "rotation": [
        -0.7071068286895752,
        0.0,
        0.0,
        0.7071067094802856
      ],
      "scale": [
        100.0,
        100.0,
        100.0
      ]
    },
    {
      "mesh": 0,
      "name": "IKEA_ALEX_DRAWER_23x14x27_WHITE_PLASTIC_0"
    },
    {
      "mesh": 1,
      "name": "IKEA_ALEX_DRAWER_23x14x27_BLACK_PLASTIC_0"
    },
    {
      "children": [
        8
      ],
      "name": "DRAWER_01.001",
      "rotation": [
        -1.3234889800848443e-23,
        -0.0,
        0.0,
        1.0
      ]
    },
    {
      "mesh": 2,
      "name": "DRAWER_01.001_WHITE_PLASTIC_0"
    },
    {
      "children": [
        10
      ],
      "name": "DRAWER_02.001",
      "rotation": [
        -1.3234889800848443e-23,
        -0.0,
        0.0,
        1.0
      ]
    },
    {
      "mesh": 3,
      "name": "DRAWER_02.001_WHITE_PLASTIC_0"
    },
    {
      "children": [
        12
      ],
      "name": "DRAWER_03.001",
      "rotation": [
        -1.3234889800848443e-23,
        -0.0,
        0.0,
        1.0
      ]
    },
    {
      "mesh": 4,
      "name": "DRAWER_03.001_WHITE_PLASTIC_0"
    },
    {
      "children": [
        14
      ],
      "name": "DRAWER_04.001",
      "rotation": [
        -1.3234889800848443e-23,
        -0.0,
        0.0,
        1.0
      ]
    },
    {
      "mesh": 5,
      "name": "DRAWER_04.001_WHITE_PLASTIC_0"
    },
    {
      "children": [
        16
      ],
      "name": "DRAWER_05.001",
      "rotation": [
        -1.3234889800848443e-23,
        -0.0,
        0.0,
        1.0
      ]
    },
    {
      "mesh": 6,
      "name": "DRAWER_05.001_WHITE_PLASTIC_0"
    }
  ],
  "scene": 0,
  "scenes": [
    {
      "name": "Sketchfab_Scene",
      "nodes": [
        0
      ]
    }
  ]
}
